<svg width="637" height="506" viewBox="0 0 637 506" fill="none" xmlns="http://www.w3.org/2000/svg">
<g clip-path="url(#clip0_4:542)">
<path opacity="0.5" d="M373.578 85.5113C333.272 84.1113 294.878 71.1122 258.222 56.8872C221.565 42.6623 185.257 26.9003 145.916 19.3647C120.613 14.5173 91.6726 13.8328 71.2892 27.3857C51.6655 40.4532 45.3256 62.9481 41.9191 83.8437C39.3532 99.5621 37.8461 116.102 44.8772 130.818C49.7536 141.036 58.4164 149.623 64.4013 159.443C85.2456 193.493 70.5169 235.483 47.9288 268.731C37.3416 284.331 25.0418 299.222 16.871 315.811C8.70019 332.401 4.91372 351.436 12.0632 368.374C19.1566 385.175 36.0525 397.77 54.3497 406.637C91.5232 424.651 135.311 429.804 178.039 432.722C272.595 439.187 367.649 436.387 462.455 433.587C497.542 432.548 532.778 431.496 567.293 426.076C586.462 423.065 606.247 418.292 620.166 406.755C637.828 392.113 642.206 367.316 630.374 348.959C610.513 318.163 555.641 310.516 541.74 277.461C534.105 259.272 541.952 239.011 553.05 222.136C576.865 185.945 616.778 154.191 618.883 112.823C620.328 84.4037 601.134 55.9538 571.465 42.5067C540.37 28.3626 497.237 30.1548 474.306 53.4834C450.678 77.5215 409.164 86.7434 373.578 85.5113Z" fill="#C0531A"/>
<path d="M271.188 429.673L58.0241 428.634L36.8435 378.996L111.739 373.564L98.6851 319.14L246.819 299.956L104.969 250.685L117.499 247.711L345.591 284.891L333.029 369.824L315.075 416.5L271.188 429.673Z" fill="#C0531A"/>
<path d="M61.2935 407.844C61.2935 407.844 74.3718 405.753 82.2187 414.988C82.2187 414.988 76.4643 419.518 64.0835 413.246L61.2935 407.844Z" fill="#C0531A"/>
<path d="M59.9235 407.639C59.9235 407.639 51.5783 417.9 55.6886 429.325C55.6886 429.325 62.4893 426.605 63.2304 412.754L59.9235 407.639Z" fill="#C0531A"/>
<path d="M52.4253 390.769C52.4253 390.769 57.6566 381.18 78.5819 394.602C78.5819 394.602 75.7918 401.049 66.5499 400.526C57.3079 400.004 54.8666 395.822 52.4253 390.769Z" fill="#C0531A"/>
<path d="M51.0737 390.078C51.0737 390.078 40.2188 388.834 39.1663 413.662C39.1663 413.662 46.0479 415.087 50.9367 407.234C55.8255 399.381 53.8202 394.976 51.0737 390.078Z" fill="#C0531A"/>
<path d="M44.7527 370.272C44.7527 370.272 50.8559 353.371 73.0018 365.393C73.0018 365.393 67.9449 380.9 47.0196 376.022L44.7527 370.272Z" fill="#C0531A"/>
<path d="M37.9519 345.008C37.9519 345.008 49.4608 327.933 69.8629 343.763C69.8629 343.763 62.7135 359.793 39.6957 351.081L37.9519 345.008Z" fill="#C0531A"/>
<path d="M35.5107 320.964C35.5107 320.964 48.9378 305.276 69.1406 320.964C69.1406 320.964 56.4111 334.728 35.5107 324.971V320.964Z" fill="#C0531A"/>
<path d="M33.4182 297.61C33.4182 297.61 47.0196 281.232 66.3755 296.739C66.3755 296.739 51.0303 311.2 33.4182 301.443V297.61Z" fill="#C0531A"/>
<path d="M34.6389 276.876C34.6389 276.876 48.9628 255.794 67.0731 270.081C67.0731 270.081 51.7279 288.201 34.6389 280.884V276.876Z" fill="#C0531A"/>
<path d="M37.9519 252.658C37.9519 252.658 53.1227 231.75 70.7348 247.779C70.7348 247.779 52.774 265.899 37.9519 256.491V252.658Z" fill="#C0531A"/>
<path d="M43.0088 231.009C43.0088 231.009 60.9697 211.358 76.6387 219.186C76.6387 219.186 57.9243 240.057 42.2241 236.224L43.0088 231.009Z" fill="#C0531A"/>
<path d="M49.2864 210.487C49.2864 210.487 70.0124 186.418 82.0693 194.457C82.0693 194.457 66.7989 213.125 47.8167 214.992L49.2864 210.487Z" fill="#C0531A"/>
<path d="M58.3479 186.685C58.3479 186.685 76.4893 167.034 89.742 171.913C89.742 171.913 74.2224 192.298 55.9128 192.821L58.3479 186.685Z" fill="#C0531A"/>
<path d="M66.5499 164.421C66.5499 164.421 86.6033 145.604 95.3221 148.914C95.3221 148.914 80.8488 169.822 65.678 168.603L66.5499 164.421Z" fill="#C0531A"/>
<path d="M74.571 143.861C74.571 143.861 91.8344 121.379 101.257 123.121C101.257 123.121 90.7881 143.164 74.571 146.145V143.861Z" fill="#C0531A"/>
<path d="M83.2777 116.139C83.2777 116.139 98.5357 98.9088 106.781 98.9461C106.781 98.9461 94.7368 121.97 82.6487 121.758L83.2777 116.139Z" fill="#C0531A"/>
<path d="M88.4341 97.6829L103.175 61.7908C103.175 61.7908 103.91 94.2356 86.5596 104.341L88.4341 97.6829Z" fill="#C0531A"/>
<path d="M94.419 58.1007C94.419 58.1007 96.8603 28.1263 95.2909 25.687C95.2909 25.687 105.828 50.6087 94.3193 71.3425L94.419 58.1007Z" fill="#C0531A"/>
<path d="M44.1798 369.874C44.1798 369.874 28.8969 360.409 19.001 383.563C19.001 383.563 32.6024 392.586 45.9796 375.779L44.1798 369.874Z" fill="#C0531A"/>
<path d="M37.4599 344.044C37.4599 344.044 18.7144 335.5 9.62183 359.675C9.62183 359.675 24.1014 369.631 39.1663 350.154L37.4599 344.044Z" fill="#C0531A"/>
<path d="M34.6387 322.401C34.6387 322.401 21.2116 306.714 1.00879 322.401C1.00879 322.401 13.7383 336.166 34.6387 326.408V322.401Z" fill="#C0531A"/>
<path d="M32.9573 297.61C32.9573 297.61 19.3559 281.232 0 296.739C0 296.739 15.3452 311.2 32.9573 301.443V297.61Z" fill="#C0531A"/>
<path d="M34.6387 277.474C34.6387 277.474 25.0978 253.859 4.35938 264.014C4.35938 264.014 15.5693 284.953 33.7918 281.394L34.6387 277.474Z" fill="#C0531A"/>
<path d="M39.154 252.54C39.154 252.54 29.6691 228.514 8.63794 239.652C8.63794 239.652 21.5169 261.674 38.2198 256.248L39.154 252.54Z" fill="#C0531A"/>
<path d="M45.0328 231.128C45.0328 231.128 41.2961 204.787 23.8584 202.429C23.8584 202.429 27.5577 230.207 42.6849 235.875L45.0328 231.128Z" fill="#C0531A"/>
<path d="M49.7285 210.537C49.7285 210.537 48.2713 178.801 33.854 177.694C33.854 177.694 34.3398 201.781 48.1031 215.029L49.7285 210.537Z" fill="#C0531A"/>
<path d="M59.8425 185.796C59.8425 185.796 55.5453 159.405 41.782 156.182C41.782 156.182 43.4884 181.738 58.4786 192.273L59.8425 185.796Z" fill="#C0531A"/>
<path d="M68.1815 164.639C68.1815 164.639 68.0383 137.147 59.6308 133.108C59.6308 133.108 54.4182 157.999 65.7465 168.148L68.1815 164.639Z" fill="#C0531A"/>
<path d="M75.2126 143.55C75.2126 143.55 74.0356 115.243 65.3292 111.255C65.3292 111.255 62.3523 133.656 73.911 145.404L75.2126 143.55Z" fill="#C0531A"/>
<path d="M84.492 118.398C84.492 118.398 84.4422 95.3744 78.2269 89.9731C78.2269 89.9731 72.049 115.194 81.2474 123.028L84.492 118.398Z" fill="#C0531A"/>
<path d="M87.7056 96.5504L81.6584 58.2314C81.6584 58.2314 73.444 89.6309 87.9921 103.47L87.7056 96.5504Z" fill="#C0531A"/>
<path d="M88.8825 58.4618C88.8825 58.4618 73.363 32.7001 73.6806 29.8376C73.6806 29.8376 75.3309 56.8377 94.855 70.2848L88.8825 58.4618Z" fill="#C0531A"/>
<path d="M90.701 50.8514C90.701 50.8514 76.0533 14.2623 69.427 11.3003C69.427 11.3003 90.3523 21.9286 91.9217 49.806L90.701 50.8514Z" fill="#C0531A"/>
<path d="M82.574 121.976L81.5713 121.671C93.9334 81.3921 97.0161 55.7113 90.259 49.2709L90.9752 48.5117C98.1433 55.3068 95.235 80.7076 82.574 121.976Z" fill="#444053"/>
<path d="M48.533 216.287L47.0508 215.758C48.3648 212.068 49.7785 208.322 51.2607 204.632C64.1647 172.498 75.1504 142.604 82.194 119.655L83.4832 119.033C76.4271 142.026 65.6344 173.064 52.718 205.241C51.2421 208.863 49.8346 212.59 48.533 216.287Z" fill="#444053"/>
<path d="M79.7216 437.987C79.5223 437.769 59.4876 415.224 45.5188 376.737C37.3339 354.205 32.7787 330.517 32.0232 306.558C31.0642 276.609 37.3542 243.168 48.1282 212.789L49.299 214.158C25.1104 282.34 34.7198 340.764 47.4681 375.947C61.2875 414.085 81.098 436.381 81.291 436.605L79.7216 437.987Z" fill="#444053"/>
<path d="M392.803 390.122C392.803 390.122 378.685 407.34 389.895 433.369L277.173 482.217L266.355 484.482L261.373 462.703L264.705 435.218V420.196L392.803 390.122Z" fill="#D5D6DB"/>
<path d="M36.8435 378.996L192.861 350.577L399.592 383.482L271.188 429.673L36.8435 378.996Z" fill="#C0531A"/>
<path d="M36.8435 378.996L192.861 350.577L399.592 383.482L271.188 429.673L36.8435 378.996Z" fill="#C0531A"/>
<path d="M36.8434 378.99C36.8434 378.99 22.2517 406.612 39.0667 432.125L270.428 482.217C270.428 482.217 256.067 460.214 271.169 429.673L36.8434 378.99Z" fill="#C0531A"/>
<path opacity="0.1" d="M36.8434 378.99C36.8434 378.99 22.2517 406.612 39.0667 432.125L270.428 482.217C270.428 482.217 256.067 460.214 271.169 429.673L36.8434 378.99Z" fill="black"/>
<path opacity="0.1" d="M43.7375 388.566C43.7375 388.566 35.3985 408.778 43.7375 421.858Z" fill="black"/>
<path d="M270.428 482.217L399.592 427.147C399.592 427.147 406.816 428.702 402.145 433.992C397.474 439.281 272.919 487.506 272.919 487.506L39.0667 432.125L270.428 482.217Z" fill="#C0531A"/>
<path opacity="0.1" d="M270.428 482.217L399.592 427.147C399.592 427.147 406.816 428.702 402.145 433.992C397.474 439.281 272.919 487.506 272.919 487.506L39.0667 432.125L270.428 482.217Z" fill="black"/>
<path opacity="0.1" d="M259.841 435.236C259.841 435.236 247.385 450.171 259.841 472.572Z" fill="black"/>
<path opacity="0.1" d="M320.142 434.984L264.274 453.607L264.471 454.198L320.339 435.574L320.142 434.984Z" fill="black"/>
<path opacity="0.1" d="M331.333 433.13L264.256 458.616L264.477 459.198L331.554 433.712L331.333 433.13Z" fill="black"/>
<path opacity="0.1" d="M341.609 433.041L264.63 464.524L264.866 465.1L341.845 433.617L341.609 433.041Z" fill="black"/>
<path opacity="0.1" d="M352.785 430.345L265.529 469.729L265.785 470.296L353.041 430.912L352.785 430.345Z" fill="black"/>
<path opacity="0.1" d="M362.174 430.358L266.22 472.265L266.469 472.835L362.423 430.928L362.174 430.358Z" fill="black"/>
<path opacity="0.1" d="M382.71 426.873L267.667 476.521L267.913 477.092L382.957 427.445L382.71 426.873Z" fill="black"/>
<path opacity="0.3" d="M94.8052 382.033L204.414 359.009L271.188 371.765L181.371 400.7L94.8052 382.033Z" fill="white"/>
<path d="M399.592 383.482C399.592 383.482 405.259 385.766 401.933 389.294C398.608 392.823 271.169 429.673 271.169 429.673L399.592 383.482Z" fill="#C0531A"/>
<path d="M454.639 330.273C454.639 330.273 440.527 347.485 451.737 373.52L339.014 422.368L328.197 424.645L323.214 402.866L326.596 375.387V360.347L454.639 330.273Z" fill="#D5D6DB"/>
<path d="M98.6851 319.141L254.697 290.728L461.433 323.633L333.029 369.824L98.6851 319.141Z" fill="#C0531A"/>
<path d="M98.6602 319.14C98.6602 319.14 84.0624 346.763 100.877 372.275L332.238 422.368C332.238 422.368 317.883 400.346 333.004 369.818L98.6602 319.14Z" fill="#C0531A"/>
<path opacity="0.1" d="M98.6602 319.14C98.6602 319.14 84.0624 346.763 100.877 372.275L332.238 422.368C332.238 422.368 317.883 400.346 333.004 369.818L259.841 353.993L98.6602 319.14Z" fill="black"/>
<path opacity="0.1" d="M105.573 328.717C105.573 328.717 97.2401 348.922 105.573 362.008Z" fill="black"/>
<path d="M332.263 422.368L461.433 367.297C461.433 367.297 468.651 368.853 463.98 374.142C459.31 379.432 334.754 427.657 334.754 427.657L100.902 372.275L332.263 422.368Z" fill="#C0531A"/>
<path opacity="0.1" d="M332.263 422.368L461.433 367.297C461.433 367.297 468.651 368.853 463.98 374.142C459.31 379.432 334.754 427.657 334.754 427.657L100.902 372.275L332.263 422.368Z" fill="#C0531A"/>
<path opacity="0.1" d="M321.676 375.387C321.676 375.387 309.22 390.321 321.676 412.723Z" fill="black"/>
<path opacity="0.1" d="M381.982 375.141L326.114 393.765L326.311 394.355L382.18 375.731L381.982 375.141Z" fill="black"/>
<path opacity="0.1" d="M393.18 373.285L326.104 398.771L326.325 399.352L393.402 373.866L393.18 373.285Z" fill="black"/>
<path opacity="0.1" d="M403.448 373.187L326.469 404.669L326.705 405.245L403.684 373.763L403.448 373.187Z" fill="black"/>
<path opacity="0.1" d="M414.631 370.492L327.375 409.875L327.631 410.443L414.887 371.059L414.631 370.492Z" fill="black"/>
<path opacity="0.1" d="M424.011 370.497L328.057 412.404L328.306 412.974L424.26 371.067L424.011 370.497Z" fill="black"/>
<path opacity="0.1" d="M444.552 367.012L329.509 416.66L329.756 417.231L444.799 367.583L444.552 367.012Z" fill="black"/>
<path opacity="0.45" d="M156.647 322.183L266.255 299.159L333.029 311.916L243.213 340.851L156.647 322.183Z" fill="white"/>
<path d="M461.433 323.633C461.433 323.633 467.094 325.917 463.775 329.439C460.455 332.961 333.029 369.817 333.029 369.817L461.433 323.633Z" fill="#AD4B17"/>
<path d="M460.493 261.805C460.493 261.805 446.374 292.713 457.584 318.742L344.862 353.9L334.069 356.184L329.087 334.405L332.419 306.919V291.879L460.493 261.805Z" fill="#D5D6DB"/>
<path d="M104.558 250.679L260.576 222.26L467.312 255.166L338.902 301.356L104.558 250.679Z" fill="#C0531A"/>
<path d="M104.558 250.673C104.558 250.673 89.9412 278.295 106.756 303.808L338.117 353.9C338.117 353.9 323.756 331.878 338.877 301.356L104.558 250.673Z" fill="#C0531A"/>
<path opacity="0.1" d="M104.558 250.673C104.558 250.673 89.9412 278.295 106.756 303.808L338.117 353.9C338.117 353.9 323.756 331.878 338.877 301.356L104.558 250.673Z" fill="black"/>
<path opacity="0.1" d="M111.452 260.25C111.452 260.25 103.113 280.461 111.452 293.541Z" fill="black"/>
<path d="M338.142 353.9L467.306 312.52C467.306 312.52 474.53 314.075 469.86 319.364C465.189 324.654 340.634 359.189 340.634 359.189L106.781 303.808L338.142 353.9Z" fill="#C0531A"/>
<path opacity="0.1" d="M338.142 353.9L467.306 312.52C467.306 312.52 474.53 314.075 469.86 319.364C465.189 324.654 340.634 359.189 340.634 359.189L106.781 303.808L338.142 353.9Z" fill="black"/>
<path opacity="0.1" d="M327.555 306.919C327.555 306.919 315.1 321.854 327.555 344.255Z" fill="black"/>
<path opacity="0.1" d="M387.863 306.672L331.995 325.296L332.192 325.886L388.06 307.262L387.863 306.672Z" fill="black"/>
<path opacity="0.1" d="M399.057 304.819L331.98 330.305L332.202 330.886L399.278 305.401L399.057 304.819Z" fill="black"/>
<path opacity="0.1" d="M409.319 304.724L332.34 336.207L332.576 336.783L409.555 305.3L409.319 304.724Z" fill="black"/>
<path opacity="0.1" d="M420.51 302.024L333.254 341.407L333.511 341.974L420.767 302.591L420.51 302.024Z" fill="black"/>
<path opacity="0.1" d="M429.893 302.035L333.939 343.941L334.189 344.512L430.143 302.605L429.893 302.035Z" fill="black"/>
<path opacity="0.1" d="M450.432 298.554L335.389 348.201L335.636 348.773L450.679 299.125L450.432 298.554Z" fill="black"/>
<path opacity="0.3" d="M162.52 253.716L272.128 230.692L338.902 243.448L249.085 272.384L162.52 253.716Z" fill="white"/>
<path d="M467.306 255.166C467.306 255.166 472.974 257.449 469.648 260.977C466.322 264.506 338.902 301.356 338.902 301.356L467.306 255.166Z" fill="#C0531A"/>
<path d="M193.322 66.2711C193.322 66.2711 169.657 64.8461 172.422 81.4357C172.422 81.4357 171.867 84.3665 174.527 85.6982C174.527 85.6982 174.57 84.4537 176.956 84.883C177.807 85.0291 178.673 85.0709 179.534 85.0075C180.695 84.9281 181.799 84.4738 182.679 83.7132V83.7132C182.679 83.7132 189.336 80.9628 191.927 70.0856C191.927 70.0856 193.845 67.7148 193.795 67.1049L189.785 68.8099C189.785 68.8099 191.149 71.691 190.077 74.0867C190.077 74.0867 189.947 68.9157 189.174 69.034C189.019 69.034 187.101 70.0358 187.101 70.0358C187.101 70.0358 189.448 75.0575 187.674 78.7039C187.674 78.7039 188.346 72.5186 186.366 70.3967L183.551 72.0395C183.551 72.0395 186.297 77.223 184.435 81.4544C184.435 81.4544 184.915 74.9641 182.959 72.4377L180.406 74.429C180.406 74.429 182.99 79.5378 181.415 83.0473C181.415 83.0473 181.209 75.4931 179.858 74.9206C179.858 74.9206 177.622 76.8869 177.286 77.6959C177.286 77.6959 179.054 81.4295 177.952 83.3647C177.952 83.3647 177.286 78.3306 176.706 78.3057C176.706 78.3057 174.483 81.641 174.253 83.9061C174.36 81.7944 175.02 79.7478 176.165 77.9697C174.883 78.2119 173.701 78.8242 172.764 79.7307C172.764 79.7307 173.107 77.3723 176.719 77.1669C176.719 77.1669 178.556 74.6343 179.048 74.485C179.048 74.485 175.455 74.1801 173.281 75.1446C173.281 75.1446 175.199 72.9231 179.702 73.9001L182.193 71.8466C182.193 71.8466 177.472 71.2243 175.467 71.915C175.467 71.915 177.778 69.9487 182.872 71.3799L185.618 69.7433C185.618 69.7433 181.589 68.8784 179.191 69.1895C179.191 69.1895 181.72 67.8268 186.422 69.3015L188.377 68.4241C188.377 68.4241 185.432 67.8454 184.566 67.7521C183.7 67.6588 183.657 67.4223 183.657 67.4223C185.526 67.1155 187.444 67.3308 189.199 68.0446C189.199 68.0446 193.403 66.5325 193.322 66.2711Z" fill="#C0531A"/>
<path opacity="0.1" d="M526.258 134.459C526.258 134.459 502.592 133.034 505.358 149.623C505.358 149.623 504.803 152.554 507.463 153.886C507.463 153.886 507.506 152.641 509.891 153.071C510.743 153.213 511.608 153.255 512.47 153.195C513.62 153.11 514.712 152.656 515.584 151.901C515.584 151.901 522.247 149.15 524.832 138.273C524.832 138.273 526.75 135.902 526.7 135.292L522.702 136.997C522.702 136.997 524.066 139.879 522.995 142.274C522.995 142.274 522.864 137.103 522.098 137.221C521.942 137.221 520.018 138.223 520.018 138.223C520.018 138.223 522.366 143.245 520.597 146.891C520.597 146.891 521.269 140.706 519.283 138.584L516.468 140.227C516.468 140.227 519.214 145.41 517.352 149.642C517.352 149.642 517.832 143.152 515.876 140.625L513.329 142.616C513.329 142.616 515.907 147.725 514.332 151.235C514.332 151.235 514.126 143.681 512.775 143.108C512.775 143.108 510.545 145.074 510.203 145.883C510.203 145.883 511.971 149.617 510.875 151.552C510.875 151.552 510.203 146.518 509.63 146.493C509.63 146.493 507.406 149.829 507.176 152.094C507.284 149.981 507.945 147.934 509.094 146.157C507.811 146.4 506.627 147.012 505.688 147.918C505.688 147.918 506.036 145.56 509.642 145.354C509.642 145.354 511.479 142.822 511.971 142.666C511.971 142.666 508.384 142.368 506.205 143.332C506.205 143.332 508.123 141.111 512.625 142.088L515.116 140.034C515.116 140.034 510.39 139.412 508.39 140.103C508.39 140.103 510.695 138.136 515.795 139.567L518.535 137.931C518.535 137.931 514.506 137.066 512.108 137.377C512.108 137.377 514.637 136.014 519.339 137.489L521.301 136.612C521.301 136.612 518.349 136.033 517.483 135.94C516.617 135.846 516.574 135.61 516.574 135.61C518.443 135.299 520.363 135.515 522.116 136.232C522.116 136.232 526.333 134.72 526.258 134.459Z" fill="#C0531A"/>
<path opacity="0.1" d="M233.18 168.758C233.18 168.758 222.867 147.396 209.739 157.924C209.739 157.924 206.905 158.87 207.042 161.839C207.042 161.839 208.132 161.272 208.91 163.562C209.201 164.372 209.586 165.144 210.056 165.865C210.693 166.841 211.631 167.583 212.728 167.98C212.728 167.98 218.376 172.448 229.144 169.399C229.144 169.399 232.152 169.916 232.644 169.555L229.207 166.898C229.207 166.898 227.338 169.492 224.735 169.723C224.735 169.723 229.194 167.09 228.715 166.481C228.615 166.356 226.846 165.155 226.846 165.155C226.846 165.155 223.602 169.654 219.553 169.884C219.553 169.884 225.283 167.458 226.167 164.688L223.365 163.033C223.365 163.033 220.17 167.962 215.568 168.397C215.568 168.397 221.472 165.653 222.723 162.716L219.747 161.471C219.747 161.471 216.539 166.213 212.703 166.555C212.703 166.555 219.205 162.691 219.043 161.229C219.043 161.229 216.234 160.246 215.362 160.339C215.362 160.339 212.983 163.693 210.741 163.693C210.741 163.693 214.808 160.65 214.559 160.158C214.559 160.158 210.561 159.847 208.456 160.781C210.352 159.839 212.463 159.41 214.578 159.536C213.739 158.537 212.626 157.804 211.376 157.427C211.376 157.427 213.606 156.58 215.543 159.623C215.543 159.623 218.657 159.99 219.024 160.345C219.024 160.345 217.536 157.072 215.636 155.647C215.636 155.647 218.513 156.226 219.828 160.625L222.848 161.82C222.848 161.82 221.11 157.389 219.51 155.989C219.51 155.989 222.35 157.041 223.589 162.212L226.354 163.805C226.354 163.805 225.152 159.866 223.707 157.931C223.707 157.931 226.13 159.474 227.133 164.29L228.858 165.572C228.858 165.572 227.924 162.716 227.612 161.919C227.301 161.123 227.457 160.961 227.457 160.961C228.641 162.439 229.392 164.216 229.624 166.095C229.624 166.095 232.956 168.945 233.18 168.758Z" fill="#C0531A"/>
<path opacity="0.1" d="M472.189 104.279C472.189 104.279 461.882 82.9165 448.747 93.4452C448.747 93.4452 445.92 94.3911 446.051 97.3593C446.051 97.3593 447.147 96.7992 447.919 99.0829C448.209 99.8957 448.596 100.671 449.071 101.392C449.706 102.366 450.642 103.107 451.737 103.501V103.501C451.737 103.501 457.392 107.969 468.153 104.926C468.153 104.926 471.161 105.436 471.659 105.075L468.24 102.412C468.24 102.412 466.372 105.013 463.775 105.243C463.775 105.243 468.228 102.605 467.748 101.995C467.649 101.871 465.88 100.67 465.88 100.67C465.88 100.67 462.642 105.169 458.587 105.399C458.587 105.399 464.323 102.972 465.207 100.209L462.361 98.5665C462.361 98.5665 459.173 103.489 454.564 103.93C454.564 103.93 460.468 101.18 461.726 98.2429L458.743 96.9984C458.743 96.9984 455.536 101.746 451.706 102.082C451.706 102.082 458.201 98.218 458.039 96.7619C458.039 96.7619 455.237 95.7725 454.365 95.8721C454.365 95.8721 451.986 99.2198 449.738 99.2198C449.738 99.2198 453.811 96.177 453.561 95.6854C453.561 95.6854 449.563 95.3742 447.452 96.3076C449.349 95.3654 451.46 94.9363 453.574 95.0631C452.738 94.0631 451.628 93.3297 450.379 92.9536C450.379 92.9536 452.609 92.1074 454.545 95.1502C454.545 95.1502 457.659 95.5236 458.027 95.8783C458.027 95.8783 456.538 92.599 454.633 91.174C454.633 91.174 457.51 91.7589 458.824 96.1832L461.851 97.3779C461.851 97.3779 460.113 92.9412 458.513 91.5411C458.513 91.5411 461.352 92.5927 462.585 97.7637L465.357 99.3567C465.357 99.3567 464.149 95.424 462.704 93.4826C462.704 93.4826 465.133 95.0258 466.129 99.8421L467.854 101.124C467.854 101.124 466.926 98.2678 466.609 97.4713C466.291 96.6748 466.453 96.5192 466.453 96.5192C467.634 97.998 468.382 99.775 468.614 101.653C468.614 101.653 471.996 104.478 472.189 104.279Z" fill="#C0531A"/>
<path opacity="0.1" d="M505.127 209.946C505.127 209.946 494.82 188.577 481.667 199.106C481.667 199.106 478.84 200.052 478.971 203.02C478.971 203.02 480.067 202.46 480.839 204.743C481.127 205.556 481.512 206.331 481.985 207.052C482.62 208.026 483.556 208.767 484.65 209.161C484.65 209.161 490.305 213.636 501.073 210.586C501.073 210.586 504.075 211.103 504.573 210.736L501.135 208.079C501.135 208.079 499.267 210.68 496.664 210.91C496.664 210.91 501.117 208.272 500.637 207.662C500.537 207.537 498.769 206.336 498.769 206.336C498.769 206.336 495.53 210.835 491.476 211.072C491.476 211.072 497.212 208.639 498.096 205.876L495.287 204.221C495.287 204.221 492.099 209.149 487.49 209.585C487.49 209.585 493.394 206.834 494.652 203.897L491.669 202.653C491.669 202.653 488.462 207.394 484.632 207.737C484.632 207.737 491.134 203.872 490.972 202.41C490.972 202.41 488.163 201.421 487.291 201.52C487.291 201.52 484.912 204.868 482.664 204.868C482.664 204.868 486.737 201.825 486.488 201.333C486.488 201.333 482.489 201.022 480.378 201.956C482.277 201.014 484.39 200.585 486.506 200.711C485.669 199.71 484.556 198.976 483.305 198.602C483.305 198.602 485.535 197.749 487.472 200.798C487.472 200.798 490.585 201.165 490.953 201.52C490.953 201.52 489.464 198.247 487.565 196.816C487.565 196.816 490.442 197.401 491.756 201.825L494.777 203.02C494.777 203.02 493.039 198.583 491.439 197.189C491.439 197.189 494.279 198.235 495.512 203.412L498.283 204.999C498.283 204.999 497.075 201.066 495.63 199.124C495.63 199.124 498.059 200.668 499.061 205.49L500.787 206.735C500.787 206.735 499.852 203.878 499.541 203.082C499.23 202.285 499.385 202.13 499.385 202.13C500.57 203.607 501.318 205.385 501.546 207.264C501.546 207.264 504.934 210.132 505.127 209.946Z" fill="#C0531A"/>
<path opacity="0.1" d="M125.77 487.954C133.677 487.954 140.087 487.238 140.087 486.355C140.087 485.472 133.677 484.756 125.77 484.756C117.862 484.756 111.452 485.472 111.452 486.355C111.452 487.238 117.862 487.954 125.77 487.954Z" fill="#C0531A"/>
<path opacity="0.1" d="M31.9111 460.774C39.8185 460.774 46.2287 460.058 46.2287 459.175C46.2287 458.291 39.8185 457.575 31.9111 457.575C24.0037 457.575 17.5935 458.291 17.5935 459.175C17.5935 460.058 24.0037 460.774 31.9111 460.774Z" fill="#C0531A"/>
<path opacity="0.1" d="M197.314 506.006C205.221 506.006 211.632 505.29 211.632 504.407C211.632 503.524 205.221 502.808 197.314 502.808C189.407 502.808 182.996 503.524 182.996 504.407C182.996 505.29 189.407 506.006 197.314 506.006Z" fill="#C0531A"/>
<path opacity="0.1" d="M563.942 466.685C571.85 466.685 578.26 465.969 578.26 465.086C578.26 464.203 571.85 463.487 563.942 463.487C556.035 463.487 549.625 464.203 549.625 465.086C549.625 465.969 556.035 466.685 563.942 466.685Z" fill="#C0531A"/>
<path opacity="0.1" d="M444.799 458.926C452.706 458.926 459.117 458.21 459.117 457.327C459.117 456.443 452.706 455.727 444.799 455.727C436.892 455.727 430.481 456.443 430.481 457.327C430.481 458.21 436.892 458.926 444.799 458.926Z" fill="#C0531A"/>
<path opacity="0.1" d="M367.724 496.772C377.076 496.772 384.658 495.471 384.658 493.866C384.658 492.261 377.076 490.96 367.724 490.96C358.372 490.96 350.791 492.261 350.791 493.866C350.791 495.471 358.372 496.772 367.724 496.772Z" fill="#C0531A"/>
<path d="M375.278 464.657C375.278 464.657 351.7 476.828 363.882 491.165C363.882 491.165 365.028 494.277 368.341 494.059C368.341 494.059 367.681 492.852 370.209 491.887C371.109 491.54 371.964 491.086 372.756 490.537C373.827 489.797 374.627 488.729 375.036 487.494V487.494C375.036 487.494 379.856 481.047 376.119 469.119C376.119 469.119 376.605 465.746 376.181 465.198L373.317 469.125C373.317 469.125 376.275 471.11 376.617 474.028C376.617 474.028 373.504 469.131 372.881 469.672C372.744 469.784 371.461 471.819 371.461 471.819C371.461 471.819 376.593 475.298 376.972 479.815C376.972 479.815 374.083 473.487 370.963 472.585L369.175 475.771C369.175 475.771 374.78 479.181 375.403 484.308C375.403 484.308 372.146 477.805 368.82 476.492L367.506 479.859C367.506 479.859 372.912 483.294 373.41 487.563C373.41 487.563 368.889 480.425 367.263 480.649C367.263 480.649 366.242 483.81 366.379 484.787C366.379 484.787 370.197 487.338 370.265 489.846C370.265 489.846 366.74 485.397 366.198 485.69C366.198 485.69 365.974 490.164 367.058 492.491C367.058 492.491 365.189 489.168 365.495 485.69C364.402 486.655 363.617 487.918 363.234 489.324C363.234 489.324 362.219 486.866 365.563 484.601C365.563 484.601 365.881 481.122 366.267 480.693C366.267 480.693 362.649 482.46 361.11 484.625C361.11 484.625 361.677 481.396 366.584 479.79L367.83 476.38C367.83 476.38 362.923 478.459 361.409 480.288C361.409 480.288 362.499 477.084 368.216 475.547L369.91 472.435C369.91 472.435 365.551 473.904 363.421 475.547C363.421 475.547 365.071 472.79 370.433 471.521L371.81 469.56C371.81 469.56 368.646 470.687 367.762 471.091C366.877 471.496 366.703 471.297 366.703 471.297C368.319 469.93 370.283 469.039 372.376 468.72C372.376 468.72 375.496 464.869 375.278 464.657Z" fill="#C0531A"/>
<path d="M445.26 234.774C441.187 223.716 418.767 222.677 409.039 225.496C402.126 227.506 387.553 229.771 379.769 230.91L379.264 230.43C380.273 230.132 380.298 229.397 380.174 228.309C380.101 226.873 380.122 225.435 380.236 224.002C385.006 225.483 389.254 221.98 389.254 221.98C394.859 219.491 393.351 208.838 394.423 205.926C395.226 203.748 396.092 190.917 396.478 184.52H396.559L396.602 182.373C396.658 181.446 396.683 180.904 396.683 180.904C396.683 180.904 397.231 165.261 398.303 162.093C399.299 159.181 400.109 144.508 400.233 142.181C400.233 141.982 400.233 141.876 400.233 141.876L400.152 140.52C400.208 139.53 400.233 138.429 400.227 137.271C400.227 131.951 399.673 125.249 399.604 124.166C399.604 124.011 399.604 123.824 399.604 123.6C399.648 121.329 399.361 109.954 389.677 105.654C386.109 104.061 381.818 102.163 377.664 100.315C376.593 91.0745 374.145 81.8836 374.357 72.5746C374.357 71.1745 374.481 69.7744 374.618 68.3805C374.618 68.785 374.575 69.1957 374.569 69.625C374.569 70.5273 374.569 71.4358 374.569 72.3381C374.936 60.6956 379.339 48.9908 378.928 37.5971C378.891 38.711 378.81 39.8311 378.704 40.9511C378.919 37.0973 378.515 33.234 377.508 29.5077C377.134 28.1947 376.63 26.8382 375.552 25.9608C374.534 25.2542 373.366 24.7921 372.14 24.6105C369.193 23.8568 366.199 23.2997 363.178 22.9428C362.719 21.5388 362.038 20.2174 361.16 19.0288C354.845 10.3669 345.491 2.22765 334.431 0.360862C328.882 -0.572533 322.498 0.205296 318.724 4.16912C318.33 4.51733 317.96 4.89152 317.616 5.28919C315.585 7.7098 314.714 10.8896 312.633 13.3039C312.496 13.4657 312.341 13.6151 312.191 13.7706C308.118 17.4109 301.772 18.1701 297.245 21.4369C296.447 22.0234 295.699 22.6748 295.009 23.3846C293.185 25.191 291.549 27.1779 290.126 29.3148C288.09 32.1772 285.997 35.1579 285.35 38.5741C284.048 45.419 288.713 51.9092 289.578 58.7977C291.509 74.2111 274.439 87.8885 277.671 103.097C278.533 106.833 280.438 110.248 283.164 112.947C276.506 118.971 270.839 124.814 270.839 124.814V125.162H269.786L269.892 126.407H269.786L270.366 133.158L269.786 142.99C269.786 142.99 269.786 143.096 269.786 143.295V143.345V143.612C269.786 143.612 269.786 143.718 269.786 143.917H269.824C270.017 147.52 270.783 160.476 271.692 163.207C272.763 166.375 273.305 182.018 273.305 182.018C273.305 182.018 274.488 204.127 275.572 207.052C276.656 209.977 275.117 220.599 280.741 223.106C282.386 224.367 284.334 225.174 286.39 225.446C286.103 227.773 286.284 229.46 287.212 229.989C287.609 230.222 288.059 230.35 288.52 230.362C288.138 230.927 287.799 231.52 287.504 232.135C285.272 231.903 283.079 231.386 280.978 230.598C274.937 228.109 254.89 222.509 249.067 226.448C243.244 230.387 229.231 233.959 235.702 249.814C242.173 265.669 245.187 266.067 245.187 266.067C247.179 267.512 248.926 269.266 250.362 271.263C252.305 274.182 270.409 280.859 274.937 280.859C276.861 280.829 278.786 280.925 280.697 281.145C280.697 281.145 275.784 285.451 276.438 287.952C277.092 290.454 274.943 310.478 274.943 310.478C274.943 310.478 279.925 315.494 282.055 308.917L282.13 309.016C282.528 309.557 284.683 312.003 288.738 308.917C290.397 307.659 292.159 306.543 294.006 305.581L313.636 302.806C315.683 302.678 317.735 302.664 319.783 302.762C322.897 303.017 325.955 301.176 327.879 299.751C331.946 301.294 336.517 302.98 338.69 303.596C343.1 304.841 363.365 310.273 368.104 308.574C369.089 308.183 369.965 307.56 370.657 306.757L375.179 306.9L373.061 307.324C373.061 307.324 377.184 307.392 382.789 307.467L382.552 307.604L389.584 307.541C399.872 307.635 411.431 307.666 412.95 307.324C415.329 306.795 427.691 307.168 431.335 307.324H432.35C432.35 307.324 445.932 304.617 440.327 290.846C436.018 280.268 422.771 277.194 416.892 276.347C418.549 276.017 419.975 275.762 420.922 275.613C425.026 274.991 432.997 271.257 433.645 269.982C434.293 268.706 440.975 265.003 442.7 262.894C444.425 260.784 449.351 245.831 445.26 234.774ZM332.755 265.719L332.089 265.937L331.641 266.086L330.781 266.932C330.096 266.472 329.361 265.987 328.595 265.489C329.947 265.57 331.335 265.651 332.755 265.719Z" fill="url(#paint0_linear_4:542)"/>
<path d="M372.463 200.108C372.463 200.108 381.992 224.998 387.41 222.509C392.828 220.02 391.358 209.442 392.392 206.542C393.426 203.642 394.572 181.651 394.572 181.651C394.572 181.651 395.095 166.095 396.129 162.946C397.088 160.052 397.866 145.46 397.997 143.164C397.997 142.965 397.997 142.859 397.997 142.859L396.97 124.814L391.153 123.364L377.664 128.342L375.795 139.001L375.067 143.164L374.755 144.938L372.463 200.108Z" fill="#BE6F72"/>
<path opacity="0.1" d="M375.603 195.938C375.603 195.938 384.695 203.375 387.435 204.028C390.175 204.681 391.857 210.481 391.857 210.481" fill="black"/>
<path d="M297.948 201.196C297.948 201.196 288.42 226.087 283.002 223.598C277.584 221.109 279.053 210.53 278.02 207.631C276.986 204.731 275.84 182.74 275.84 182.74C275.84 182.74 275.317 167.183 274.283 164.035C273.324 161.141 272.545 146.549 272.415 144.253C272.415 144.054 272.415 143.948 272.415 143.948L273.448 125.903L279.265 124.453L292.754 129.431L294.623 140.09L295.351 144.253L295.663 146.027L297.948 201.196Z" fill="#BE6F72"/>
<path d="M359.995 67.9946H338.728V101.118H359.995V67.9946Z" fill="#3E373A"/>
<path opacity="0.1" d="M359.995 67.9946H338.728V101.118H359.995V67.9946Z" fill="black"/>
<path d="M294.212 225.988C294.212 225.988 286.944 233.971 289.64 235.421C292.337 236.871 309.781 264.045 309.781 264.045C309.781 264.045 367.076 271.095 377.882 260.517C388.687 249.938 388.469 231.04 388.469 231.04C388.469 231.04 379.787 232.907 378.841 231.893C377.894 230.878 372.694 225.988 372.694 225.988C372.694 225.988 299.194 221.532 294.212 225.988Z" fill="#4B4B5B"/>
<path opacity="0.02" d="M294.212 225.988C294.212 225.988 286.944 233.971 289.64 235.421C292.337 236.871 309.781 264.045 309.781 264.045C309.781 264.045 367.076 271.095 377.882 260.517C388.687 249.938 388.469 231.04 388.469 231.04C388.469 231.04 379.787 232.907 378.841 231.893C377.894 230.878 372.694 225.988 372.694 225.988C372.694 225.988 299.194 221.532 294.212 225.988Z" fill="black"/>
<path d="M397.356 125.075L378.672 140.009L373.024 140.42L370.95 140.569L336.118 143.121L299.997 140.482L294.623 140.09L287.772 139.592L273.448 125.903C273.448 125.903 283.587 115.05 292.468 107.726C295.968 104.833 299.275 102.493 301.685 101.572L302.096 101.429C303.612 100.838 304.965 99.8956 306.044 98.6786C313.057 91.4542 319.54 73.6263 319.54 73.6263C319.54 73.6263 350.473 57.659 346.737 78.6044C343 99.5498 360.643 94.3726 360.643 94.3726L366.46 97.0234L368.758 98.075L374.618 100.757L387.84 106.818C398.215 111.591 397.356 125.075 397.356 125.075Z" fill="#BE6F72"/>
<path opacity="0.1" d="M334.667 90.6824C350.031 90.6824 362.486 78.2375 362.486 62.8859C362.486 47.5343 350.031 35.0894 334.667 35.0894C319.303 35.0894 306.848 47.5343 306.848 62.8859C306.848 78.2375 319.303 90.6824 334.667 90.6824Z" fill="black"/>
<path opacity="0.1" d="M397.399 144.875H272.415C272.415 144.676 272.415 144.57 272.415 144.57L273.448 126.525C273.448 126.525 283.587 115.673 292.468 108.349L370.938 105.237L374.587 101.392L387.809 107.452C398.19 112.219 397.356 125.703 397.356 125.703C397.356 125.703 398.776 141.328 397.399 144.875Z" fill="black"/>
<path d="M397.399 144.253H272.415C272.415 144.054 272.415 143.948 272.415 143.948L273.448 125.903C273.448 125.903 283.587 115.05 292.468 107.726L370.938 104.615L374.587 100.77L387.809 106.83C398.19 111.597 397.356 125.081 397.356 125.081C397.356 125.081 398.776 140.706 397.399 144.253Z" fill="#E7C7CA"/>
<path opacity="0.1" d="M314.632 93.6507C314.632 93.6507 334.349 118.753 360.612 93.1343C386.874 67.5157 363.52 150.277 363.52 150.277L306.848 156.997L314.632 93.6507Z" fill="black"/>
<path d="M314.632 94.8954C314.632 94.8954 334.349 119.997 360.612 94.3789C386.874 68.7603 363.52 151.521 363.52 151.521L306.848 158.242L314.632 94.8954Z" fill="#E7C7CA"/>
<path opacity="0.1" d="M368.727 99.3009L370.813 131.092L373.049 141.671L374.755 149.76C374.755 149.76 379.115 211.987 377.869 215.098C376.624 218.209 378.492 220.698 378.753 222.354C379.015 224.009 378.492 228.165 378.697 230.032C378.903 231.899 378.697 232.727 373.927 232.061C369.157 231.395 362.505 230.238 362.505 230.238C362.505 230.238 345.69 231.482 339.88 229.41C334.069 227.338 323.065 227.332 323.065 227.332C323.065 227.332 306.455 227.749 301.062 227.126C295.669 226.504 292.754 233.766 289.229 231.687C285.705 229.609 293.377 209.498 295.868 203.686C298.359 197.874 292.549 183.151 292.549 183.151L300.022 141.727L301.685 132.337V102.817L302.096 102.674C303.612 102.083 304.965 101.14 306.044 99.9232L307.913 129.63L366.454 131.708V98.2742" fill="black"/>
<path d="M368.727 98.0565L370.813 129.848L373.049 140.426L374.755 148.516C374.755 148.516 379.115 210.742 377.869 213.854C376.624 216.965 378.492 219.454 378.753 221.109C379.015 222.764 378.492 226.921 378.697 228.788C378.903 230.655 378.697 231.482 373.927 230.817C369.157 230.151 362.505 228.993 362.505 228.993C362.505 228.993 345.69 230.238 339.88 228.166C334.069 226.094 323.065 226.087 323.065 226.087C323.065 226.087 306.455 226.504 301.062 225.882C295.669 225.26 292.754 232.522 289.229 230.443C285.705 228.365 293.377 208.253 295.868 202.441C298.359 196.629 292.549 181.907 292.549 181.907L300.022 140.482L301.685 131.093V101.572L302.096 101.429C303.612 100.838 304.965 99.8957 306.044 98.6788L307.913 128.386L366.454 130.464V97.0298" fill="#E7C7CA"/>
<path opacity="0.1" d="M375.459 31.7106C375.104 30.41 374.612 29.0597 373.591 28.1886C372.616 27.4888 371.489 27.0284 370.303 26.8445C367.462 26.0981 364.574 25.5451 361.658 25.1893C361.242 23.8075 360.612 22.4995 359.79 21.3126C353.687 12.7004 344.657 4.57988 334.032 2.7442C328.471 1.7797 322.025 2.64464 318.463 7.02538C316.507 9.43354 315.666 12.6258 313.692 14.9904C309.887 19.5827 303.018 20.1489 298.222 23.702C295.663 25.5688 293.807 28.2757 291.995 30.9016C290.033 33.7454 288.015 36.7074 287.392 40.1049C286.147 46.8938 290.637 53.3654 291.465 60.2165C293.334 75.5428 276.892 89.1393 280 104.26C281.812 113.078 289.964 119.288 298.397 122.437C301.367 123.55 304.762 124.658 306.15 127.508C306.773 128.753 306.879 130.19 307.464 131.447C309.432 135.641 315.903 135.803 319.378 132.748C322.853 129.692 323.949 124.751 324.36 120.14C326.029 100.004 317.958 80.1103 318.899 59.924C319.179 53.8196 320.898 46.8938 326.372 44.131C333.739 40.3974 342.601 46.62 350.71 45.4315C354.547 54.7601 355.362 65.0557 353.039 74.8708C351.75 80.2409 349.521 85.4493 349.359 90.9874C349.116 99.4191 353.668 107.123 357.604 114.577C358.449 115.971 359.014 117.516 359.267 119.126C359.329 120.759 359.025 122.386 358.376 123.887C356.153 129.866 352.317 135.417 351.881 141.783C351.753 142.526 351.921 143.289 352.348 143.911C352.787 144.326 353.353 144.58 353.955 144.633C360.681 145.784 366.497 139.829 369.779 133.849C373.439 127.244 375.571 119.904 376.02 112.368C376.698 99.6991 372.152 87.2352 372.432 74.5534C372.756 60.1356 379.277 45.6182 375.459 31.7106Z" fill="black"/>
<path d="M376.082 31.0883C375.727 29.7877 375.235 28.4374 374.213 27.5663C373.238 26.8665 372.112 26.4061 370.925 26.2222C368.085 25.4758 365.197 24.9228 362.281 24.5669C361.865 23.1852 361.234 21.8771 360.413 20.6902C354.309 12.0781 345.279 3.95757 334.655 2.12189C329.093 1.15738 322.648 2.02233 319.085 6.40306C317.13 8.81122 316.289 12.0034 314.315 14.368C310.51 18.9603 303.64 19.5266 298.845 23.0797C296.285 24.9465 294.43 27.6534 292.617 30.2793C290.656 33.1231 288.638 36.085 288.015 39.4826C286.769 46.2715 291.26 52.743 292.088 59.5942C293.956 74.9205 277.515 88.517 280.623 103.638C282.435 112.455 290.587 118.666 299.019 121.814C301.99 122.928 305.384 124.036 306.773 126.886C307.396 128.13 307.502 129.568 308.087 130.825C310.055 135.019 316.526 135.181 320.001 132.125C323.476 129.07 324.572 124.129 324.983 119.518C326.652 99.3817 318.581 79.4879 319.521 59.3017C319.801 53.1973 321.52 46.2715 326.995 43.5086C334.362 39.7751 343.224 45.9977 351.333 44.8092C355.17 54.1378 355.984 64.4334 353.662 74.2485C352.373 79.6186 350.143 84.827 349.981 90.3651C349.738 98.7968 354.291 106.5 358.227 113.955C359.071 115.349 359.636 116.894 359.89 118.504C359.952 120.137 359.647 121.764 358.999 123.264C356.776 129.244 352.939 134.795 352.503 141.161C352.376 141.904 352.543 142.667 352.971 143.289C353.409 143.703 353.976 143.958 354.577 144.01C361.303 145.162 367.12 139.207 370.402 133.227C374.061 126.622 376.193 119.282 376.642 111.746C377.321 99.0768 372.775 86.6129 373.055 73.9311C373.379 59.5133 379.899 44.9959 376.082 31.0883Z" fill="#3E373A"/>
<path d="M362.325 306.608L387.03 307.398L383.487 289.091L364.56 290.89L362.325 306.608Z" fill="#C3C7D9"/>
<path d="M438.876 263.218C437.213 265.29 430.78 269.023 430.157 270.268C429.535 271.512 421.856 275.246 417.907 275.868C413.959 276.49 401.51 279.191 399.224 280.641C397.586 281.686 384.439 284.997 375.802 286.832C373.462 287.386 371.094 287.811 368.708 288.108C364.972 288.313 324.08 274.418 324.08 274.418L331.964 266.329L332.4 266.18C334.63 265.427 344.931 261.948 350.648 260.293C357.087 258.426 364.56 250.754 364.56 250.754C364.56 250.754 375.559 247.02 377.016 246.603C378.473 246.186 373.279 232.086 373.279 232.086C373.279 232.086 397.15 228.775 406.492 225.969C415.834 223.162 437.425 224.202 441.367 235.197C445.31 246.192 440.564 261.145 438.876 263.218Z" fill="#4B4B5B"/>
<path d="M330.096 298.27C330.096 298.27 325.326 303.248 320.549 302.837C315.772 302.426 299.07 304.082 299.07 304.082C296.043 305.288 293.208 306.929 290.656 308.954C286.751 312.028 284.677 309.576 284.291 309.054L284.223 308.954C282.143 315.494 277.372 310.51 277.372 310.51C277.372 310.51 279.446 290.597 278.811 288.108C278.175 285.619 282.915 281.344 282.915 281.344L288.52 279.919L302.719 276.285L323.065 283.335L330.096 298.27Z" fill="#E7C7CA"/>
<path opacity="0.1" d="M288.495 279.919L284.291 309.054L284.223 308.954C282.143 315.494 277.372 310.51 277.372 310.51C277.372 310.51 279.446 290.597 278.811 288.108C278.175 285.619 282.915 281.344 282.915 281.344L288.495 279.919Z" fill="black"/>
<path opacity="0.1" d="M317.877 197.046C317.877 197.046 328.875 200.78 338.429 197.046Z" fill="black"/>
<path opacity="0.1" d="M355.424 204.103C355.424 204.103 359.989 206.38 363.52 204.103Z" fill="black"/>
<path opacity="0.1" d="M355.424 209.504C355.424 209.504 363.103 210.531 364.56 208.458Z" fill="black"/>
<path opacity="0.1" d="M352.933 221.109C352.933 221.109 367.357 219.242 370.938 216.753Z" fill="black"/>
<path opacity="0.1" d="M308.922 216.753C308.922 216.753 317.018 221.314 323.04 221.109Z" fill="black"/>
<path opacity="0.1" d="M375.795 286.833C373.456 287.386 371.088 287.812 368.702 288.108C364.965 288.314 324.074 274.418 324.074 274.418L331.958 266.329L332.394 266.18C333.64 267.057 334.661 267.81 335.39 268.383C338.821 271.083 342.134 267.555 343.38 267.555C344.625 267.555 355.418 276.472 355.418 276.472C355.418 276.472 365.382 278.756 367.045 280.828C368.708 282.9 374.519 282.489 375.552 283.939C375.864 284.387 375.901 285.489 375.795 286.833Z" fill="black"/>
<path d="M299.069 232.932C299.069 232.932 288.993 233.511 283.182 231.065C277.372 228.62 258.066 222.976 252.461 226.94C246.856 230.903 233.36 234.407 239.588 250.175C245.816 265.943 248.724 266.354 248.724 266.354C250.651 267.798 252.333 269.541 253.706 271.519C255.575 274.425 273.013 281.058 277.372 281.058C281.731 281.058 289.41 281.058 300.203 288.525C310.996 295.992 320.755 296.826 320.755 296.826C320.755 296.826 334.456 302.426 338.722 303.671C342.988 304.915 362.481 310.304 367.052 308.649C371.623 306.994 374.525 296.614 374.525 296.614C374.525 296.614 376.599 287.281 375.559 285.831C374.519 284.381 368.708 284.791 367.052 282.719C365.395 280.647 355.424 278.363 355.424 278.363C355.424 278.363 344.657 269.44 343.411 269.44C342.166 269.44 338.852 272.962 335.421 270.268C328.585 265.209 321.404 260.635 313.929 256.578C306.045 252.427 299.069 232.932 299.069 232.932Z" fill="#4B4B5B"/>
<path opacity="0.1" d="M278.811 238.949C280.605 238.583 282.459 238.636 284.23 239.103C286 239.57 287.639 240.44 289.018 241.644C294 245.794 310.765 254.126 310.765 254.126" fill="black"/>
<path opacity="0.1" d="M403.378 238.688C403.378 238.688 381.164 242.048 377.016 246.609Z" fill="black"/>
<path d="M428.912 307.398H427.934C424.421 307.274 412.52 306.9 410.228 307.398C407.532 308.021 371.822 307.398 371.822 307.398L378.803 305.948C378.803 305.948 376.212 296.876 377.856 296.123C377.856 296.123 368.515 289.975 375.558 285.824C382.602 281.674 390.194 283.423 390.194 283.423L407.874 277.436L411.268 276.285C411.268 276.285 431.197 277.324 436.591 291.014C441.984 304.704 428.912 307.398 428.912 307.398Z" fill="#E7C7CA"/>
<path opacity="0.1" d="M428.912 307.398H427.934C433.732 302.619 446.848 288.071 407.875 277.467L411.269 276.316C411.269 276.316 431.197 277.355 436.591 291.045C441.984 304.735 428.912 307.398 428.912 307.398Z" fill="black"/>
<path d="M392.274 291.269C392.876 291.269 393.364 290.782 393.364 290.18C393.364 289.579 392.876 289.091 392.274 289.091C391.672 289.091 391.184 289.579 391.184 290.18C391.184 290.782 391.672 291.269 392.274 291.269Z" fill="#4B4B5B"/>
<path d="M385.94 293.068C386.542 293.068 387.03 292.58 387.03 291.979C387.03 291.377 386.542 290.89 385.94 290.89C385.339 290.89 384.851 291.377 384.851 291.979C384.851 292.58 385.339 293.068 385.94 293.068Z" fill="#4B4B5B"/>
<g opacity="0.1">
<path opacity="0.1" d="M355.082 61.8593C355.323 55.0149 354.105 48.1975 351.507 41.8598C343.411 43.067 334.542 36.8256 327.169 40.5592C321.713 43.3221 320.001 50.2479 319.695 56.3523C319.621 57.9639 319.608 59.5756 319.639 61.1873C319.639 60.6148 319.639 60.0361 319.695 59.4636C319.982 53.3592 321.695 46.4334 327.169 43.6705C334.542 39.937 343.398 46.1596 351.507 44.9711C353.707 50.3394 354.918 56.0607 355.082 61.8593V61.8593Z" fill="black"/>
<path opacity="0.1" d="M292.343 60.7206C292.45 59.3647 292.423 58.0016 292.262 56.651C291.602 51.175 288.607 45.9418 288.065 40.6028C287.367 47.0432 291.471 53.2285 292.262 59.7623C292.343 60.0983 292.343 60.397 292.343 60.7206Z" fill="black"/>
<path opacity="0.1" d="M325.157 116.563C324.771 121.18 323.681 126.114 320.175 129.176C316.669 132.237 310.211 132.069 308.262 127.875C307.639 126.631 307.545 125.181 306.941 123.936C305.559 121.086 302.158 119.979 299.188 118.865C290.749 115.71 282.609 109.531 280.797 100.689C280.635 99.8875 280.525 99.0769 280.467 98.2617C280.314 100.114 280.425 101.979 280.797 103.8C282.609 112.617 290.762 118.821 299.188 121.976C302.158 123.09 305.559 124.198 306.941 127.048C307.564 128.292 307.67 129.73 308.262 130.987C310.223 135.181 316.694 135.342 320.175 132.287C323.657 129.232 324.74 124.291 325.157 119.674C325.347 117.244 325.411 114.805 325.35 112.368C325.35 113.781 325.27 115.175 325.157 116.563Z" fill="black"/>
<path opacity="0.1" d="M373.261 70.9818C373.261 71.884 373.261 72.7801 373.261 73.6762C373.61 62.102 377.857 50.4657 377.44 39.1343C377.116 49.6132 373.497 60.3286 373.261 70.9818Z" fill="black"/>
<path opacity="0.1" d="M359.896 117.801C360.049 117.062 360.097 116.306 360.039 115.554C359.788 113.944 359.223 112.398 358.376 111.006C354.776 104.161 350.672 97.154 350.187 89.5562C350.187 89.8797 350.143 90.1784 350.137 90.5269C349.888 98.9523 354.44 106.662 358.376 114.117C359.045 115.272 359.556 116.51 359.896 117.801V117.801Z" fill="black"/>
<path opacity="0.1" d="M376.841 108.797C376.376 116.336 374.229 123.675 370.558 130.277C367.269 136.257 361.459 142.212 354.726 141.061C354.123 141.009 353.556 140.752 353.12 140.333C352.993 140.191 352.894 140.026 352.827 139.848C352.752 140.333 352.69 140.825 352.653 141.323C352.524 142.064 352.692 142.826 353.12 143.444C353.556 143.864 354.123 144.121 354.726 144.172C361.459 145.324 367.269 139.369 370.558 133.389C374.229 126.786 376.376 119.447 376.841 111.908C376.916 110.452 376.922 109.002 376.879 107.552C376.866 107.969 376.866 108.38 376.841 108.797Z" fill="black"/>
</g>
<path opacity="0.1" d="M377.856 296.123C377.856 296.123 393.619 302.731 404.013 288.108" stroke="black" stroke-miterlimit="10"/>
<path opacity="0.1" d="M380.958 307.672C380.958 307.672 393.831 299.309 410.229 307.398" stroke="black" stroke-miterlimit="10"/>
<path opacity="0.1" d="M294.791 305.774C294.791 305.774 300.197 293.59 314.633 302.881" stroke="black" stroke-miterlimit="10"/>
<path opacity="0.1" d="M277.266 125.592L288.289 115.635C288.289 115.635 331.03 112.835 332.799 127.353C332.799 127.353 347.951 110.141 379.819 113.974L393.302 124.702L356.035 141.042L319.82 153.593L293.147 141.665L277.266 125.592Z" fill="black"/>
<path d="M277.266 126.214L288.289 116.258C288.289 116.258 331.03 113.457 332.799 127.975C332.799 127.975 347.951 110.763 379.819 114.596L393.302 125.324L356.035 141.665L319.82 154.216L293.147 142.287L277.266 126.214Z" fill="#D5D6DB"/>
<path opacity="0.1" d="M272.39 127.458L277.266 185.746L328.956 188.341L326.714 130.302L326.671 129.325L272.39 127.458Z" fill="black"/>
<path d="M272.39 126.214L277.266 184.501L328.956 187.096L326.714 129.058L326.671 128.081L272.39 126.214Z" fill="#C0531A"/>
<path opacity="0.1" d="M395.668 126.214L342.346 134.204V192.753L394.454 185.229L395.668 126.214Z" fill="black"/>
<path d="M395.668 124.969L342.346 132.959V191.508L394.454 183.985L395.668 124.969Z" fill="#C0531A"/>
<path opacity="0.3" d="M383.094 139.256L354.291 142.455L354.92 152.262L383.076 149.188L383.094 139.256Z" fill="white"/>
<path d="M280.069 215.714L283.002 223.598C283.002 223.598 287.361 227.332 292.132 225.465C296.902 223.598 301.062 222.671 303.136 220.854C305.21 219.037 308.118 209.908 308.118 209.908C308.118 209.908 311.027 199.952 313.929 197.463C316.831 194.974 324.516 160.681 313.929 164.035C303.342 167.389 295.246 198.502 295.246 198.502C295.246 198.502 293.377 200.78 290.681 200.991C287.984 201.203 282.585 200.574 281.545 202.858C280.504 205.142 276.955 211.153 280.069 215.714Z" fill="#BE6F72"/>
<path opacity="0.1" d="M342.346 134.197C339.616 134.812 336.78 134.78 334.064 134.104C331.349 133.427 328.83 132.125 326.708 130.302L328.956 188.334C328.956 188.334 334.25 194.059 342.346 192.752V134.197Z" fill="black"/>
<path d="M342.346 132.953C339.616 133.568 336.78 133.536 334.064 132.859C331.349 132.183 328.83 130.881 326.708 129.058L328.956 187.09C328.956 187.09 334.25 192.815 342.346 191.508V132.953Z" fill="#C0531A"/>
<path opacity="0.1" d="M342.346 132.953C339.616 133.568 336.78 133.536 334.064 132.859C331.349 132.183 328.83 130.881 326.708 129.058L328.956 187.09C328.956 187.09 334.25 192.815 342.346 191.508V132.953Z" fill="black"/>
<path opacity="0.1" d="M343.592 126.413C343.592 126.413 365.283 119.786 370.938 120.719Z" fill="black"/>
<path opacity="0.1" d="M319.328 123.519C319.328 123.519 298.303 118.541 294.791 119.954Z" fill="black"/>
<path opacity="0.1" d="M357.268 127.24C357.268 127.24 371.772 121.926 377.016 124.453Z" fill="black"/>
<path opacity="0.1" d="M349.962 260.548C352.21 258.861 354.602 257.377 357.112 256.111C360.849 254.313 367.699 249.646 367.699 249.646" fill="black"/>
<path opacity="0.1" d="M294.791 197.046C294.791 197.046 285.692 204.482 282.958 205.136C280.224 205.789 278.537 211.588 278.537 211.588" fill="black"/>
<path d="M390.319 214.606L387.416 222.509C387.416 222.509 383.057 226.243 378.28 224.376C373.504 222.509 369.356 221.582 367.276 219.765C365.196 217.948 362.294 208.819 362.294 208.819C362.294 208.819 359.392 198.863 356.483 196.374C353.575 193.885 345.896 159.592 356.483 162.946C367.07 166.3 375.166 197.413 375.166 197.413C375.166 197.413 377.035 199.691 379.731 199.902C382.428 200.114 387.827 199.485 388.868 201.769C389.908 204.053 393.432 210.064 390.319 214.606Z" fill="#BE6F72"/>
<path opacity="0.1" d="M385.23 200.07C385.23 200.07 391.178 203.891 391.153 208.458Z" fill="black"/>
<path d="M334.767 89.3199C350.131 89.3199 362.586 76.8749 362.586 61.5233C362.586 46.1717 350.131 33.7268 334.767 33.7268C319.402 33.7268 306.947 46.1717 306.947 61.5233C306.947 76.8749 319.402 89.3199 334.767 89.3199Z" fill="#BE6F72"/>
<path d="M317.298 54.0623C320.674 53.5333 323.632 51.5732 326.858 50.4469C334.076 47.9143 342.06 49.6504 349.365 51.9341C352.167 52.8115 355.013 53.8009 357.953 53.8009C360.892 53.8009 364.012 52.5999 365.513 50.0673C366.896 47.7401 366.628 44.7158 365.464 42.2704C364.299 39.8249 362.35 37.8585 360.382 36.0042C353.905 29.8935 345.871 24.1811 336.984 24.8034C333.409 25.0585 329.99 26.3342 326.702 27.7467C322.562 29.5295 318.531 31.5575 314.633 33.82C311.637 35.5561 306.088 37.8772 304.363 41.0507C300.44 48.2005 311.195 55.0205 317.298 54.0623Z" fill="#3E373A"/>
<path opacity="0.1" d="M365.513 47.4537C364.013 49.9863 360.892 51.1873 357.953 51.1873C355.013 51.1873 352.167 50.2352 349.359 49.3578C342.053 47.0741 334.076 45.3318 326.852 47.8706C323.632 48.9969 320.667 50.982 317.292 51.4798C312.372 52.2514 304.45 47.9702 303.591 42.5254C302.626 48.8165 311.812 54.2053 317.292 53.3466C320.667 52.8176 323.632 50.8575 326.852 49.7374C334.076 47.1986 342.053 48.9409 349.359 51.2246C352.167 52.102 355.007 53.0914 357.953 53.0541C360.899 53.0168 364.013 51.8593 365.513 49.3205C366.291 47.9394 366.598 46.3424 366.385 44.7718C366.288 45.7174 365.991 46.6316 365.513 47.4537Z" fill="black"/>
<path d="M591.276 384.69C591.276 384.69 594.969 389.512 589.569 396.799C584.17 404.086 579.723 410.234 581.517 414.776C581.517 414.776 589.663 401.248 596.289 401.055C602.915 400.862 598.556 392.823 591.276 384.69Z" fill="#C0531A"/>
<path opacity="0.1" d="M591.276 384.69C591.597 385.156 591.851 385.665 592.029 386.202C598.494 393.793 601.944 400.881 595.722 401.055C589.93 401.223 582.987 411.571 581.324 414.179C581.377 414.389 581.441 414.597 581.517 414.801C581.517 414.801 589.663 401.273 596.289 401.08C602.915 400.887 598.556 392.823 591.276 384.69Z" fill="black"/>
<path d="M598.126 390.838C598.126 392.536 597.933 393.912 597.703 393.912C597.472 393.912 597.273 392.536 597.273 390.838C597.273 389.139 597.51 389.941 597.746 389.941C597.983 389.941 598.126 389.139 598.126 390.838Z" fill="#FFD037"/>
<path d="M600.487 392.866C598.998 393.675 597.697 394.167 597.584 393.962C597.472 393.756 598.587 392.929 600.076 392.095C601.564 391.261 600.979 391.871 601.091 392.095C601.203 392.319 601.981 392.051 600.487 392.866Z" fill="#FFD037"/>
<path d="M571.758 384.69C571.758 384.69 568.065 389.512 573.464 396.799C578.864 404.086 583.311 410.234 581.511 414.776C581.511 414.776 573.371 401.248 566.738 401.055C560.106 400.862 564.496 392.823 571.758 384.69Z" fill="#C0531A"/>
<path opacity="0.1" d="M571.758 384.69C571.436 385.156 571.183 385.665 571.005 386.202C564.54 393.793 561.09 400.881 567.311 401.055C573.097 401.223 580.047 411.571 581.71 414.179C581.658 414.39 581.591 414.598 581.511 414.801C581.511 414.801 573.371 401.273 566.738 401.08C560.106 400.887 564.496 392.823 571.758 384.69Z" fill="black"/>
<path d="M564.895 390.838C564.895 392.536 565.082 393.912 565.318 393.912C565.555 393.912 565.748 392.536 565.748 390.838C565.748 389.139 565.505 389.941 565.275 389.941C565.044 389.941 564.895 389.139 564.895 390.838Z" fill="#FFD037"/>
<path d="M562.541 392.866C564.029 393.675 565.331 394.167 565.443 393.962C565.555 393.756 564.441 392.929 562.952 392.095C561.464 391.261 562.049 391.871 561.937 392.095C561.825 392.319 561.046 392.051 562.541 392.866Z" fill="#FFD037"/>
<path opacity="0.1" d="M581.517 451.689C602.842 451.689 620.129 449.039 620.129 445.771C620.129 442.503 602.842 439.854 581.517 439.854C560.192 439.854 542.905 442.503 542.905 445.771C542.905 449.039 560.192 451.689 581.517 451.689Z" fill="#C0531A"/>
<path d="M601.39 408.274L601.203 409.779L600.941 411.908L600.836 412.797L600.574 414.926L600.462 415.815L600.207 417.937L597.248 442.143C596.987 444.303 593.456 445.989 589.19 445.989H573.838C569.572 445.989 566.047 444.303 565.779 442.143L562.821 417.937L562.56 415.815L562.454 414.926L562.192 412.797L562.08 411.908L561.825 409.779L561.638 408.274C561.495 407.029 563.4 406.021 565.817 406.021H597.217C599.627 406.021 601.539 407.048 601.39 408.274Z" fill="#8F431B"/>
<path d="M601.203 409.779L600.947 411.907H562.086L561.825 409.779H601.203Z" fill="#9D9CB5"/>
<path d="M600.836 412.797L600.58 414.926H562.454L562.192 412.797H600.836Z" fill="#9D9CB5"/>
<path d="M600.468 415.815L600.206 417.944H562.821L562.566 415.815H600.468Z" fill="#9D9CB5"/>
</g>
<defs>
<linearGradient id="paint0_linear_4:542" x1="340.434" y1="312.327" x2="340.434" y2="-5.25896e-05" gradientUnits="userSpaceOnUse">
<stop stop-color="#808080" stop-opacity="0.25"/>
<stop offset="0.54" stop-color="#808080" stop-opacity="0.12"/>
<stop offset="1" stop-color="#808080" stop-opacity="0.1"/>
</linearGradient>
<clipPath id="clip0_4:542">
<rect width="637" height="506" fill="white"/>
</clipPath>
</defs>
</svg>
