<svg width="183" height="145" viewBox="0 0 183 145" fill="none" xmlns="http://www.w3.org/2000/svg">
<g clip-path="url(#clip0_5:2008)">
<path opacity="0.5" d="M107.323 24.5042C95.7441 24.103 84.714 20.378 74.1832 16.3017C63.6523 12.2253 53.2217 7.70859 41.9197 5.54917C34.6504 4.16008 26.3363 3.96393 20.4805 7.84767C14.8429 11.5923 13.0216 18.0385 12.0429 24.0263C11.3058 28.5306 10.8728 33.2703 12.8928 37.4875C14.2937 40.4154 16.7823 42.8762 18.5017 45.69C24.4899 55.4475 20.2586 67.4803 13.7694 77.0078C10.7279 81.4782 7.19436 85.7453 4.84702 90.4992C2.49967 95.2532 1.41188 100.708 3.46581 105.562C5.50363 110.376 10.3576 113.985 15.614 116.526C26.2934 121.689 38.8728 123.165 51.1481 124.001C78.3125 125.854 105.62 125.052 132.856 124.249C142.936 123.951 153.059 123.65 162.974 122.097C168.481 121.234 174.165 119.866 178.164 116.56C183.238 112.364 184.496 105.259 181.097 99.9982C175.391 91.1733 159.627 88.9818 155.634 79.5096C153.44 74.2974 155.694 68.4914 158.883 63.6554C165.724 53.2845 177.191 44.185 177.796 32.3306C178.211 24.1868 172.697 16.0342 164.173 12.1808C155.24 8.12763 142.848 8.64118 136.261 15.3263C129.473 22.2146 117.546 24.8573 107.323 24.5042Z" fill="#C0531A"/>
<path d="M77.9079 123.128L16.6693 122.83L10.5845 108.605L32.1006 107.049L28.3506 91.4531L70.907 85.9556L30.1558 71.8365L33.7556 70.9841L99.2827 81.6386L95.674 105.977L90.5159 119.353L77.9079 123.128Z" fill="#C0531A"/>
<path d="M17.6089 116.872C17.6089 116.872 21.3661 116.273 23.6204 118.92C23.6204 118.92 21.9672 120.218 18.4104 118.42L17.6089 116.872Z" fill="#C0531A"/>
<path d="M17.215 116.813C17.215 116.813 14.8175 119.754 15.9983 123.028C15.9983 123.028 17.9521 122.249 18.165 118.279L17.215 116.813Z" fill="#C0531A"/>
<path d="M15.061 111.979C15.061 111.979 16.5639 109.231 22.5754 113.078C22.5754 113.078 21.7739 114.925 19.1188 114.775C16.4637 114.625 15.7624 113.427 15.061 111.979Z" fill="#C0531A"/>
<path d="M14.6728 111.781C14.6728 111.781 11.5543 111.425 11.252 118.539C11.252 118.539 13.2289 118.948 14.6334 116.697C16.0379 114.447 15.4618 113.185 14.6728 111.781Z" fill="#C0531A"/>
<path d="M12.8569 106.106C12.8569 106.106 14.6103 101.263 20.9725 104.708C20.9725 104.708 19.5197 109.151 13.5082 107.753L12.8569 106.106Z" fill="#C0531A"/>
<path d="M10.9028 98.8658C10.9028 98.8658 14.2092 93.9729 20.0704 98.5092C20.0704 98.5092 18.0164 103.103 11.4038 100.606L10.9028 98.8658Z" fill="#C0531A"/>
<path d="M10.2017 91.9757C10.2017 91.9757 14.059 87.4803 19.863 91.9757C19.863 91.9757 16.206 95.9201 10.2017 93.1241V91.9757Z" fill="#C0531A"/>
<path d="M9.60059 85.2835C9.60059 85.2835 13.5081 80.5902 19.0687 85.0338C19.0687 85.0338 14.6603 89.1779 9.60059 86.3819V85.2835Z" fill="#C0531A"/>
<path d="M9.95117 79.342C9.95117 79.342 14.0662 73.3007 19.269 77.3948C19.269 77.3948 14.8606 82.5874 9.95117 80.4904V79.342Z" fill="#C0531A"/>
<path d="M10.9028 72.402C10.9028 72.402 15.2612 66.4105 20.3208 71.004C20.3208 71.004 15.161 76.1965 10.9028 73.5004V72.402Z" fill="#C0531A"/>
<path d="M12.3558 66.1982C12.3558 66.1982 17.5157 60.5669 22.0171 62.8102C22.0171 62.8102 16.6408 68.7909 12.1304 67.6925L12.3558 66.1982Z" fill="#C0531A"/>
<path d="M14.1591 60.3173C14.1591 60.3173 20.1133 53.42 23.5771 55.7239C23.5771 55.7239 19.1901 61.0734 13.7368 61.6083L14.1591 60.3173Z" fill="#C0531A"/>
<path d="M16.7625 53.4968C16.7625 53.4968 21.9743 47.8656 25.7816 49.2636C25.7816 49.2636 21.323 55.1052 16.063 55.255L16.7625 53.4968Z" fill="#C0531A"/>
<path d="M19.1186 47.1166C19.1186 47.1166 24.8797 41.7243 27.3845 42.673C27.3845 42.673 23.2265 48.6644 18.8682 48.3149L19.1186 47.1166Z" fill="#C0531A"/>
<path d="M21.4233 41.225C21.4233 41.225 26.3828 34.7825 29.0898 35.2817C29.0898 35.2817 26.0822 41.0253 21.4233 41.8795V41.225Z" fill="#C0531A"/>
<path d="M23.9244 33.2809C23.9244 33.2809 28.3077 28.3433 30.6765 28.354C30.6765 28.354 27.2164 34.9517 23.7437 34.8911L23.9244 33.2809Z" fill="#C0531A"/>
<path d="M25.4057 27.9921L29.6406 17.7068C29.6406 17.7068 29.8517 27.0042 24.8672 29.9001L25.4057 27.9921Z" fill="#C0531A"/>
<path d="M27.1248 16.6494C27.1248 16.6494 27.8262 8.05984 27.3753 7.36084C27.3753 7.36084 30.4025 14.5024 27.0962 20.4439L27.1248 16.6494Z" fill="#C0531A"/>
<path d="M12.6925 105.991C12.6925 105.991 8.30192 103.279 5.45898 109.914C5.45898 109.914 9.36646 112.5 13.2095 107.684L12.6925 105.991Z" fill="#C0531A"/>
<path d="M10.7616 98.5895C10.7616 98.5895 5.3763 96.1413 2.76416 103.069C2.76416 103.069 6.9239 105.922 11.2518 100.341L10.7616 98.5895Z" fill="#C0531A"/>
<path d="M9.95088 92.3876C9.95088 92.3876 6.09351 87.8922 0.289551 92.3876C0.289551 92.3876 3.94654 96.3319 9.95088 93.5359V92.3876Z" fill="#C0531A"/>
<path d="M9.46811 85.2835C9.46811 85.2835 5.56063 80.5902 0 85.0338C0 85.0338 4.40843 89.1779 9.46811 86.3819V85.2835Z" fill="#C0531A"/>
<path d="M9.95122 79.5133C9.95122 79.5133 7.21026 72.7463 1.25244 75.6564C1.25244 75.6564 4.47289 81.6567 9.7079 80.6367L9.95122 79.5133Z" fill="#C0531A"/>
<path d="M11.2482 72.368C11.2482 72.368 8.52336 65.4832 2.48145 68.675C2.48145 68.675 6.18138 74.9857 10.9798 73.4307L11.2482 72.368Z" fill="#C0531A"/>
<path d="M12.9371 66.2323C12.9371 66.2323 11.8636 58.6841 6.854 58.0083C6.854 58.0083 7.91675 65.9684 12.2626 67.5928L12.9371 66.2323Z" fill="#C0531A"/>
<path d="M14.2861 60.3317C14.2861 60.3317 13.8674 51.2376 9.72559 50.9202C9.72559 50.9202 9.86514 57.8228 13.8191 61.6192L14.2861 60.3317Z" fill="#C0531A"/>
<path d="M17.1919 53.2419C17.1919 53.2419 15.9574 45.6795 12.0034 44.7559C12.0034 44.7559 12.4936 52.0793 16.8001 55.0982L17.1919 53.2419Z" fill="#C0531A"/>
<path d="M19.5875 47.1791C19.5875 47.1791 19.5464 39.3011 17.1311 38.1438C17.1311 38.1438 15.6335 45.2765 18.888 48.1848L19.5875 47.1791Z" fill="#C0531A"/>
<path d="M21.6076 41.136C21.6076 41.136 21.2695 33.0244 18.7683 31.8813C18.7683 31.8813 17.9131 38.3007 21.2337 41.6674L21.6076 41.136Z" fill="#C0531A"/>
<path d="M24.2732 33.9282C24.2732 33.9282 24.2589 27.3305 22.4734 25.7827C22.4734 25.7827 20.6985 33.0099 23.3411 35.2549L24.2732 33.9282Z" fill="#C0531A"/>
<path d="M25.1964 27.6675L23.4592 16.6868C23.4592 16.6868 21.0993 25.6846 25.2787 29.6504L25.1964 27.6675Z" fill="#C0531A"/>
<path d="M25.5347 16.7529C25.5347 16.7529 21.0762 9.37055 21.1674 8.55029C21.1674 8.55029 21.6415 16.2875 27.2505 20.1409L25.5347 16.7529Z" fill="#C0531A"/>
<path d="M26.057 14.5721C26.057 14.5721 21.849 4.08707 19.9453 3.23828C19.9453 3.23828 25.9568 6.28393 26.4077 14.2725L26.057 14.5721Z" fill="#C0531A"/>
<path d="M23.7221 34.9537L23.4341 34.8663C26.9855 23.3239 27.8711 15.9647 25.9299 14.1192L26.1357 13.9016C28.195 15.8488 27.3594 23.1277 23.7221 34.9537Z" fill="#444053"/>
<path d="M13.9424 61.9795L13.5166 61.8279C13.8941 60.7705 14.3002 59.697 14.7261 58.6396C18.4331 49.4313 21.5892 40.865 23.6127 34.2887L23.983 34.1104C21.956 40.6992 18.8554 49.5936 15.1447 58.8144C14.7207 59.8522 14.3163 60.9203 13.9424 61.9795Z" fill="#444053"/>
<path d="M22.9029 125.51C22.8457 125.447 17.09 118.987 13.077 107.958C10.7256 101.501 9.41698 94.7133 9.19994 87.8476C8.92441 79.2652 10.7314 69.6825 13.8266 60.9771L14.163 61.3693C7.214 80.9075 9.97463 97.6497 13.637 107.732C17.6071 118.661 23.2983 125.05 23.3538 125.114L22.9029 125.51Z" fill="#444053"/>
<path d="M112.846 111.794C112.846 111.794 108.79 116.728 112.011 124.187L79.6274 138.185L76.5197 138.834L75.0884 132.593L76.0456 124.717V120.412L112.846 111.794Z" fill="#D5D6DB"/>
<path d="M10.5845 108.606L55.4059 100.462L114.796 109.891L77.9079 123.128L10.5845 108.606Z" fill="#C0531A"/>
<path d="M10.5845 108.606L55.4059 100.462L114.796 109.891L77.9079 123.128L10.5845 108.606Z" fill="#C0531A"/>
<path d="M10.5848 108.604C10.5848 108.604 6.39285 116.519 11.2235 123.83L77.6899 138.185C77.6899 138.185 73.5642 131.879 77.9028 123.128L10.5848 108.604Z" fill="#C0531A"/>
<path opacity="0.1" d="M10.5848 108.604C10.5848 108.604 6.39285 116.519 11.2235 123.83L77.6899 138.185C77.6899 138.185 73.5642 131.879 77.9028 123.128L10.5848 108.604Z" fill="black"/>
<path opacity="0.1" d="M12.5652 111.348C12.5652 111.348 10.1696 117.14 12.5652 120.888Z" fill="black"/>
<path d="M77.6895 138.185L114.796 122.404C114.796 122.404 116.872 122.85 115.53 124.365C114.188 125.881 78.4052 139.701 78.4052 139.701L11.2231 123.83L77.6895 138.185Z" fill="#C0531A"/>
<path opacity="0.1" d="M77.6895 138.185L114.796 122.404C114.796 122.404 116.872 122.85 115.53 124.365C114.188 125.881 78.4052 139.701 78.4052 139.701L11.2231 123.83L77.6895 138.185Z" fill="black"/>
<path opacity="0.1" d="M74.6484 124.722C74.6484 124.722 71.0702 129.001 74.6484 135.421Z" fill="black"/>
<path opacity="0.1" d="M91.9721 124.649L75.9219 129.986L75.9785 130.155L92.0287 124.819L91.9721 124.649Z" fill="black"/>
<path opacity="0.1" d="M95.1865 124.118L75.9165 131.422L75.9801 131.588L95.2501 124.285L95.1865 124.118Z" fill="black"/>
<path opacity="0.1" d="M98.1393 124.093L76.0244 133.115L76.0922 133.28L98.2071 124.258L98.1393 124.093Z" fill="black"/>
<path opacity="0.1" d="M101.349 123.32L76.2822 134.606L76.3559 134.768L101.423 123.483L101.349 123.32Z" fill="black"/>
<path opacity="0.1" d="M104.047 123.324L76.4805 135.333L76.5521 135.496L104.118 123.487L104.047 123.324Z" fill="black"/>
<path opacity="0.1" d="M109.947 122.325L76.8965 136.552L76.9674 136.716L110.017 122.489L109.947 122.325Z" fill="black"/>
<path opacity="0.3" d="M27.2363 109.476L58.7251 102.878L77.9083 106.533L52.1053 114.825L27.2363 109.476Z" fill="white"/>
<path d="M114.796 109.891C114.796 109.891 116.424 110.546 115.469 111.557C114.513 112.568 77.9023 123.128 77.9023 123.128L114.796 109.891Z" fill="#C0531A"/>
<path d="M130.611 94.6433C130.611 94.6433 126.556 99.5756 129.777 107.036L97.3935 121.034L94.2858 121.687L92.8545 115.446L93.826 107.571V103.261L130.611 94.6433Z" fill="#D5D6DB"/>
<path d="M28.3506 91.4532L73.1702 83.3113L132.562 92.7407L95.674 105.977L28.3506 91.4532Z" fill="#C0531A"/>
<path d="M28.3434 91.4531C28.3434 91.4531 24.1496 99.3686 28.9803 106.68L95.4467 121.034C95.4467 121.034 91.3227 114.723 95.6668 105.975L28.3434 91.4531Z" fill="#C0531A"/>
<path opacity="0.1" d="M28.3434 91.4531C28.3434 91.4531 24.1496 99.3686 28.9803 106.68L95.4467 121.034C95.4467 121.034 91.3227 114.723 95.6668 105.975L74.648 101.441L28.3434 91.4531Z" fill="black"/>
<path opacity="0.1" d="M30.3296 94.1975C30.3296 94.1975 27.9357 99.9874 30.3296 103.737Z" fill="black"/>
<path d="M95.4542 121.034L132.563 105.253C132.563 105.253 134.636 105.699 133.294 107.215C131.953 108.73 96.1698 122.55 96.1698 122.55L28.9878 106.68L95.4542 121.034Z" fill="#C0531A"/>
<path opacity="0.1" d="M95.4542 121.034L132.563 105.253C132.563 105.253 134.636 105.699 133.294 107.215C131.953 108.73 96.1698 122.55 96.1698 122.55L28.9878 106.68L95.4542 121.034Z" fill="#C0531A"/>
<path opacity="0.1" d="M92.4126 107.571C92.4126 107.571 88.8343 111.851 92.4126 118.27Z" fill="black"/>
<path opacity="0.1" d="M109.738 107.501L93.6875 112.838L93.7441 113.007L109.794 107.67L109.738 107.501Z" fill="black"/>
<path opacity="0.1" d="M112.955 106.969L93.6846 114.272L93.7482 114.439L113.018 107.136L112.955 106.969Z" fill="black"/>
<path opacity="0.1" d="M115.904 106.941L93.7896 115.963L93.8573 116.128L115.972 107.106L115.904 106.941Z" fill="black"/>
<path opacity="0.1" d="M119.117 106.169L94.0498 117.454L94.1235 117.617L119.191 106.331L119.117 106.169Z" fill="black"/>
<path opacity="0.1" d="M121.812 106.17L94.2456 118.179L94.3173 118.342L121.883 106.333L121.812 106.17Z" fill="black"/>
<path opacity="0.1" d="M127.713 105.171L94.6626 119.398L94.7335 119.562L127.784 105.335L127.713 105.171Z" fill="black"/>
<path opacity="0.45" d="M45.002 92.3253L76.4908 85.7275L95.6739 89.383L69.8709 97.6748L45.002 92.3253Z" fill="white"/>
<path d="M132.563 92.7407C132.563 92.7407 134.189 93.3951 133.235 94.4044C132.282 95.4137 95.6743 105.975 95.6743 105.975L132.563 92.7407Z" fill="#AD4B17"/>
<path d="M132.292 75.0232C132.292 75.0232 128.236 83.8802 131.457 91.3391L99.0734 101.414L95.9728 102.068L94.5415 95.8274L95.4987 87.9511V83.6412L132.292 75.0232Z" fill="#D5D6DB"/>
<path d="M30.0376 71.8349L74.859 63.6912L134.251 73.1206L97.361 86.357L30.0376 71.8349Z" fill="#C0531A"/>
<path d="M30.038 71.833C30.038 71.833 25.8389 79.7485 30.6696 87.0595L97.136 101.414C97.136 101.414 93.0102 95.1034 97.3543 86.3569L30.038 71.833Z" fill="#C0531A"/>
<path opacity="0.1" d="M30.038 71.833C30.038 71.833 25.8389 79.7485 30.6696 87.0595L97.136 101.414C97.136 101.414 93.0102 95.1034 97.3543 86.3569L30.038 71.833Z" fill="black"/>
<path opacity="0.1" d="M32.0184 74.5774C32.0184 74.5774 29.6227 80.3691 32.0184 84.1173Z" fill="black"/>
<path d="M97.1427 101.414L134.249 89.556C134.249 89.556 136.325 90.0018 134.983 91.5175C133.641 93.0332 97.8583 102.93 97.8583 102.93L30.6763 87.0596L97.1427 101.414Z" fill="#C0531A"/>
<path opacity="0.1" d="M97.1427 101.414L134.249 89.556C134.249 89.556 136.325 90.0018 134.983 91.5175C133.641 93.0332 97.8583 102.93 97.8583 102.93L30.6763 87.0596L97.1427 101.414Z" fill="black"/>
<path opacity="0.1" d="M94.1016 87.9512C94.1016 87.9512 90.5233 92.2308 94.1016 98.6501Z" fill="black"/>
<path opacity="0.1" d="M111.427 87.8804L95.377 93.2173L95.4336 93.3864L111.484 88.0496L111.427 87.8804Z" fill="black"/>
<path opacity="0.1" d="M114.643 87.3491L95.373 94.6523L95.4366 94.819L114.707 87.5158L114.643 87.3491Z" fill="black"/>
<path opacity="0.1" d="M117.591 87.3223L95.4761 96.344L95.5438 96.509L117.659 87.4873L117.591 87.3223Z" fill="black"/>
<path opacity="0.1" d="M120.806 86.5482L95.7388 97.834L95.8124 97.9965L120.88 86.7107L120.806 86.5482Z" fill="black"/>
<path opacity="0.1" d="M123.502 86.5515L95.9355 98.5603L96.0072 98.7237L123.573 86.7149L123.502 86.5515Z" fill="black"/>
<path opacity="0.1" d="M129.402 85.554L96.3521 99.781L96.423 99.9447L129.473 85.7177L129.402 85.554Z" fill="black"/>
<path opacity="0.3" d="M46.6895 72.7051L78.1783 66.1074L97.3614 69.7629L71.5585 78.0547L46.6895 72.7051Z" fill="white"/>
<path d="M134.25 73.1206C134.25 73.1206 135.878 73.775 134.922 74.7861C133.967 75.7971 97.3613 86.3571 97.3613 86.3571L134.25 73.1206Z" fill="#C0531A"/>
<path d="M55.5381 18.9907C55.5381 18.9907 48.7394 18.5824 49.5338 23.3363C49.5338 23.3363 49.3746 24.1762 50.1385 24.5578C50.1385 24.5578 50.1511 24.2011 50.8363 24.3242C51.0808 24.366 51.3296 24.378 51.577 24.3598C51.9105 24.3371 52.2276 24.2069 52.4805 23.9889V23.9889C52.4805 23.9889 54.3931 23.2008 55.1374 20.0838C55.1374 20.0838 55.6884 19.4044 55.6741 19.2297L54.5219 19.7182C54.5219 19.7182 54.9137 20.5439 54.606 21.2304C54.606 21.2304 54.5684 19.7486 54.3466 19.7824C54.3019 19.7824 53.7508 20.0695 53.7508 20.0695C53.7508 20.0695 54.4253 21.5085 53.9154 22.5535C53.9154 22.5535 54.1086 20.781 53.5397 20.173L52.731 20.6437C52.731 20.6437 53.52 22.1291 52.985 23.3416C52.985 23.3416 53.1228 21.4818 52.561 20.7578L51.8275 21.3284C51.8275 21.3284 52.57 22.7924 52.1173 23.7981C52.1173 23.7981 52.0583 21.6334 51.67 21.4693C51.67 21.4693 51.0277 22.0328 50.9311 22.2646C50.9311 22.2646 51.4392 23.3345 51.1226 23.8891C51.1226 23.8891 50.9311 22.4465 50.7647 22.4394C50.7647 22.4394 50.126 23.3951 50.0598 24.0442C50.0907 23.4391 50.2801 22.8526 50.6091 22.3431C50.241 22.4125 49.9013 22.5879 49.6322 22.8477C49.6322 22.8477 49.7306 22.1719 50.7683 22.113C50.7683 22.113 51.2961 21.3873 51.4374 21.3445C51.4374 21.3445 50.4051 21.2571 49.7807 21.5335C49.7807 21.5335 50.3318 20.8969 51.6253 21.1769L52.341 20.5884C52.341 20.5884 50.9848 20.4101 50.4087 20.608C50.4087 20.608 51.0725 20.0446 52.536 20.4547L53.325 19.9857C53.325 19.9857 52.1674 19.7379 51.4786 19.827C51.4786 19.827 52.205 19.4365 53.5558 19.8591L54.1176 19.6077C54.1176 19.6077 53.2713 19.4419 53.0226 19.4151C52.7739 19.3884 52.7614 19.3206 52.7614 19.3206C53.2985 19.2327 53.8496 19.2944 54.3537 19.4989C54.3537 19.4989 55.5614 19.0656 55.5381 18.9907Z" fill="#C0531A"/>
<path opacity="0.1" d="M151.186 38.5307C151.186 38.5307 144.387 38.1224 145.181 42.8763C145.181 42.8763 145.022 43.7162 145.786 44.0978C145.786 44.0978 145.799 43.7412 146.484 43.8642C146.728 43.9051 146.977 43.9171 147.224 43.8999C147.555 43.8756 147.869 43.7455 148.119 43.529C148.119 43.529 150.033 42.7408 150.776 39.6238C150.776 39.6238 151.327 38.9444 151.313 38.7697L150.164 39.2583C150.164 39.2583 150.556 40.0839 150.248 40.7704C150.248 40.7704 150.211 39.2886 149.99 39.3225C149.946 39.3225 149.393 39.6096 149.393 39.6096C149.393 39.6096 150.067 41.0486 149.559 42.0935C149.559 42.0935 149.752 40.3211 149.182 39.713L148.373 40.1837C148.373 40.1837 149.162 41.6691 148.627 42.8817C148.627 42.8817 148.765 41.0218 148.203 40.2979L147.471 40.8685C147.471 40.8685 148.212 42.3325 147.759 43.3382C147.759 43.3382 147.7 41.1734 147.312 41.0094C147.312 41.0094 146.672 41.5728 146.573 41.8046C146.573 41.8046 147.081 42.8745 146.766 43.4291C146.766 43.4291 146.573 41.9865 146.409 41.9794C146.409 41.9794 145.77 42.9352 145.704 43.5842C145.735 42.9789 145.925 42.3922 146.255 41.8831C145.886 41.9527 145.546 42.1281 145.276 42.3877C145.276 42.3877 145.376 41.7119 146.412 41.6531C146.412 41.6531 146.94 40.9273 147.081 40.8827C147.081 40.8827 146.051 40.7972 145.425 41.0735C145.425 41.0735 145.976 40.437 147.269 40.7169L147.985 40.1285C147.985 40.1285 146.627 39.9502 146.053 40.1481C146.053 40.1481 146.715 39.5846 148.18 39.9947L148.967 39.5258C148.967 39.5258 147.809 39.2779 147.121 39.3671C147.121 39.3671 147.847 38.9765 149.198 39.3992L149.761 39.1477C149.761 39.1477 148.913 38.9819 148.665 38.9551C148.416 38.9284 148.403 38.8606 148.403 38.8606C148.941 38.7716 149.492 38.8333 149.996 39.039C149.996 39.039 151.207 38.6056 151.186 38.5307Z" fill="#C0531A"/>
<path opacity="0.1" d="M66.9889 48.3595C66.9889 48.3595 64.0261 42.2379 60.2546 45.255C60.2546 45.255 59.4405 45.526 59.4799 46.3766C59.4799 46.3766 59.793 46.2143 60.0166 46.8705C60.1002 47.1025 60.2107 47.3239 60.3458 47.5303C60.5289 47.8101 60.7983 48.0229 61.1134 48.1366C61.1134 48.1366 62.7361 49.4169 65.8295 48.5432C65.8295 48.5432 66.6937 48.6912 66.835 48.5877L65.8474 47.8263C65.8474 47.8263 65.3107 48.5699 64.5628 48.6359C64.5628 48.6359 65.8439 47.8816 65.7061 47.7069C65.6775 47.6712 65.1694 47.327 65.1694 47.327C65.1694 47.327 64.2372 48.6163 63.0743 48.6823C63.0743 48.6823 64.7203 47.9868 64.9743 47.1933L64.1692 46.719C64.1692 46.719 63.2514 48.1313 61.9292 48.2561C61.9292 48.2561 63.6253 47.4697 63.9849 46.628L63.1297 46.2714C63.1297 46.2714 62.2083 47.6302 61.1062 47.7283C61.1062 47.7283 62.9741 46.6209 62.9276 46.2019C62.9276 46.2019 62.1207 45.9201 61.8702 45.9469C61.8702 45.9469 61.1867 46.908 60.5426 46.908C60.5426 46.908 61.711 46.036 61.6394 45.8952C61.6394 45.8952 60.4908 45.806 59.886 46.0735C60.431 45.8035 61.0373 45.6806 61.6448 45.7168C61.4038 45.4304 61.0842 45.2204 60.7251 45.1123C60.7251 45.1123 61.3656 44.8698 61.9221 45.7418C61.9221 45.7418 62.8166 45.847 62.9222 45.9487C62.9222 45.9487 62.4946 45.0107 61.9489 44.6024C61.9489 44.6024 62.7755 44.7682 63.153 46.0289L64.0207 46.3713C64.0207 46.3713 63.5216 45.1016 63.0617 44.7004C63.0617 44.7004 63.8776 45.0018 64.2336 46.4836L65.028 46.9401C65.028 46.9401 64.6827 45.8113 64.2676 45.2568C64.2676 45.2568 64.9636 45.699 65.2517 47.0792L65.7472 47.4465C65.7472 47.4465 65.4789 46.628 65.3894 46.3998C65.3 46.1715 65.3447 46.1252 65.3447 46.1252C65.685 46.5486 65.9006 47.0579 65.9673 47.5963C65.9673 47.5963 66.9245 48.413 66.9889 48.3595Z" fill="#C0531A"/>
<path opacity="0.1" d="M135.652 29.8824C135.652 29.8824 132.691 23.7608 128.918 26.7779C128.918 26.7779 128.106 27.049 128.143 27.8996C128.143 27.8996 128.458 27.7391 128.68 28.3935C128.763 28.6264 128.875 28.8485 129.011 29.055C129.193 29.3343 129.462 29.5465 129.777 29.6595V29.6595C129.777 29.6595 131.401 30.9399 134.493 30.0679C134.493 30.0679 135.357 30.2141 135.5 30.1107L134.518 29.3475C134.518 29.3475 133.981 30.0929 133.235 30.1588C133.235 30.1588 134.514 29.4028 134.377 29.228C134.348 29.1924 133.84 28.8482 133.84 28.8482C133.84 28.8482 132.91 30.1374 131.745 30.2034C131.745 30.2034 133.393 29.508 133.647 28.7162L132.829 28.2455C132.829 28.2455 131.913 29.656 130.589 29.7826C130.589 29.7826 132.285 28.9944 132.647 28.1528L131.79 27.7961C131.79 27.7961 130.868 29.1567 129.768 29.253C129.768 29.253 131.634 28.1456 131.587 27.7284C131.587 27.7284 130.782 27.4448 130.532 27.4734C130.532 27.4734 129.848 28.4327 129.203 28.4327C129.203 28.4327 130.373 27.5608 130.301 27.4199C130.301 27.4199 129.152 27.3307 128.546 27.5982C129.091 27.3282 129.697 27.2052 130.305 27.2416C130.065 26.955 129.745 26.7448 129.387 26.6371C129.387 26.6371 130.027 26.3946 130.584 27.2665C130.584 27.2665 131.478 27.3735 131.584 27.4752C131.584 27.4752 131.156 26.5354 130.609 26.1271C130.609 26.1271 131.435 26.2947 131.813 27.5625L132.682 27.9049C132.682 27.9049 132.183 26.6335 131.723 26.2323C131.723 26.2323 132.539 26.5336 132.894 28.0155L133.69 28.472C133.69 28.472 133.343 27.345 132.927 26.7886C132.927 26.7886 133.625 27.2309 133.912 28.611L134.407 28.9784C134.407 28.9784 134.141 28.1599 134.049 27.9317C133.958 27.7034 134.005 27.6588 134.005 27.6588C134.344 28.0826 134.559 28.5918 134.625 29.1299C134.625 29.1299 135.597 29.9395 135.652 29.8824Z" fill="#C0531A"/>
<path opacity="0.1" d="M145.115 60.1624C145.115 60.1624 142.154 54.039 138.376 57.0561C138.376 57.0561 137.563 57.3271 137.601 58.1777C137.601 58.1777 137.916 58.0172 138.138 58.6716C138.22 58.9045 138.331 59.1266 138.467 59.3332C138.649 59.6124 138.918 59.8247 139.233 59.9377C139.233 59.9377 140.857 61.2198 143.951 60.346C143.951 60.346 144.813 60.494 144.956 60.3888L143.968 59.6274C143.968 59.6274 143.432 60.3728 142.684 60.4387C142.684 60.4387 143.963 59.6827 143.825 59.5079C143.797 59.4723 143.289 59.1281 143.289 59.1281C143.289 59.1281 142.358 60.4173 141.193 60.4851C141.193 60.4851 142.841 59.7879 143.095 58.9962L142.288 58.5218C142.288 58.5218 141.372 59.9341 140.048 60.0589C140.048 60.0589 141.745 59.2708 142.106 58.4291L141.249 58.0725C141.249 58.0725 140.328 59.4313 139.227 59.5293C139.227 59.5293 141.095 58.422 141.049 58.0029C141.049 58.0029 140.242 57.7194 139.991 57.7479C139.991 57.7479 139.308 58.7073 138.662 58.7073C138.662 58.7073 139.832 57.8353 139.76 57.6945C139.76 57.6945 138.612 57.6053 138.005 57.8728C138.551 57.6029 139.158 57.48 139.766 57.5161C139.525 57.2291 139.206 57.0189 138.846 56.9116C138.846 56.9116 139.487 56.6673 140.043 57.5411C140.043 57.5411 140.938 57.6463 141.043 57.7479C141.043 57.7479 140.616 56.81 140.07 56.3999C140.07 56.3999 140.896 56.5675 141.274 57.8353L142.142 58.1777C142.142 58.1777 141.643 56.9063 141.183 56.5069C141.183 56.5069 141.999 56.8064 142.353 58.29L143.149 58.7447C143.149 58.7447 142.802 57.6178 142.387 57.0614C142.387 57.0614 143.085 57.5037 143.373 58.8856L143.868 59.2422C143.868 59.2422 143.6 58.4238 143.51 58.1955C143.421 57.9673 143.466 57.9227 143.466 57.9227C143.806 58.346 144.021 58.8554 144.086 59.3938C144.086 59.3938 145.06 60.2158 145.115 60.1624Z" fill="#C0531A"/>
<path opacity="0.1" d="M36.1318 139.829C38.4034 139.829 40.245 139.624 40.245 139.371C40.245 139.118 38.4034 138.912 36.1318 138.912C33.8601 138.912 32.0186 139.118 32.0186 139.371C32.0186 139.624 33.8601 139.829 36.1318 139.829Z" fill="#C0531A"/>
<path opacity="0.1" d="M9.16743 132.04C11.4391 132.04 13.2807 131.835 13.2807 131.582C13.2807 131.329 11.4391 131.124 9.16743 131.124C6.89575 131.124 5.0542 131.329 5.0542 131.582C5.0542 131.835 6.89575 132.04 9.16743 132.04Z" fill="#C0531A"/>
<path opacity="0.1" d="M56.685 145.002C58.9567 145.002 60.7982 144.797 60.7982 144.543C60.7982 144.29 58.9567 144.085 56.685 144.085C54.4133 144.085 52.5718 144.29 52.5718 144.543C52.5718 144.797 54.4133 145.002 56.685 145.002Z" fill="#C0531A"/>
<path opacity="0.1" d="M162.012 133.734C164.283 133.734 166.125 133.529 166.125 133.276C166.125 133.023 164.283 132.817 162.012 132.817C159.74 132.817 157.898 133.023 157.898 133.276C157.898 133.529 159.74 133.734 162.012 133.734Z" fill="#C0531A"/>
<path opacity="0.1" d="M127.784 131.51C130.055 131.51 131.897 131.305 131.897 131.052C131.897 130.799 130.055 130.594 127.784 130.594C125.512 130.594 123.67 130.799 123.67 131.052C123.67 131.305 125.512 131.51 127.784 131.51Z" fill="#C0531A"/>
<path opacity="0.1" d="M105.641 142.356C108.328 142.356 110.506 141.983 110.506 141.523C110.506 141.063 108.328 140.69 105.641 140.69C102.954 140.69 100.776 141.063 100.776 141.523C100.776 141.983 102.954 142.356 105.641 142.356Z" fill="#C0531A"/>
<path d="M107.812 133.153C107.812 133.153 101.038 136.64 104.538 140.749C104.538 140.749 104.867 141.64 105.819 141.578C105.819 141.578 105.629 141.232 106.355 140.956C106.614 140.856 106.859 140.726 107.087 140.569C107.395 140.357 107.625 140.051 107.742 139.697V139.697C107.742 139.697 109.127 137.849 108.053 134.431C108.053 134.431 108.193 133.465 108.071 133.308L107.248 134.433C107.248 134.433 108.098 135.002 108.196 135.838C108.196 135.838 107.302 134.435 107.123 134.59C107.084 134.622 106.715 135.205 106.715 135.205C106.715 135.205 108.189 136.202 108.298 137.496C108.298 137.496 107.468 135.683 106.572 135.424L106.058 136.337C106.058 136.337 107.669 137.315 107.847 138.784C107.847 138.784 106.912 136.92 105.956 136.544L105.579 137.509C105.579 137.509 107.132 138.493 107.275 139.716C107.275 139.716 105.976 137.671 105.509 137.735C105.509 137.735 105.216 138.641 105.255 138.921C105.255 138.921 106.352 139.652 106.371 140.371C106.371 140.371 105.359 139.096 105.203 139.18C105.203 139.18 105.139 140.462 105.45 141.129C105.45 141.129 104.913 140.177 105.001 139.18C104.687 139.456 104.461 139.818 104.352 140.221C104.352 140.221 104.06 139.517 105.021 138.868C105.021 138.868 105.112 137.871 105.223 137.748C105.223 137.748 104.183 138.254 103.741 138.875C103.741 138.875 103.904 137.949 105.314 137.489L105.672 136.512C105.672 136.512 104.262 137.108 103.827 137.632C103.827 137.632 104.14 136.714 105.783 136.273L106.269 135.382C106.269 135.382 105.017 135.802 104.405 136.273C104.405 136.273 104.879 135.483 106.42 135.119L106.815 134.558C106.815 134.558 105.906 134.88 105.652 134.996C105.398 135.112 105.348 135.055 105.348 135.055C105.812 134.664 106.377 134.408 106.978 134.317C106.978 134.317 107.874 133.213 107.812 133.153Z" fill="#C0531A"/>
<path d="M127.916 67.2772C126.746 64.1085 120.305 63.8107 117.51 64.6185C115.524 65.1945 111.338 65.8436 109.101 66.1699L108.956 66.0326C109.246 65.947 109.253 65.7366 109.218 65.4245C109.197 65.0132 109.203 64.6011 109.236 64.1906C110.606 64.615 111.826 63.611 111.826 63.611C113.436 62.8978 113.003 59.845 113.311 59.0105C113.542 58.3864 113.791 54.7095 113.902 52.8764H113.925L113.937 52.2612C113.953 51.9955 113.961 51.8403 113.961 51.8403C113.961 51.8403 114.118 47.3575 114.426 46.4498C114.712 45.6153 114.945 41.4106 114.98 40.7437C114.98 40.6866 114.98 40.6563 114.98 40.6563L114.957 40.2676C114.973 39.9841 114.98 39.6684 114.979 39.3368C114.979 37.8122 114.819 35.8917 114.8 35.5814C114.8 35.5369 114.8 35.4834 114.8 35.4192C114.812 34.7683 114.73 31.5087 111.948 30.2765C110.923 29.82 109.69 29.2762 108.497 28.7466C108.189 26.0986 107.486 23.4648 107.547 20.7972C107.547 20.396 107.582 19.9948 107.622 19.5953C107.622 19.7112 107.609 19.8289 107.607 19.952C107.607 20.2105 107.607 20.4709 107.607 20.7294C107.713 17.3931 108.978 14.039 108.86 10.774C108.849 11.0932 108.826 11.4142 108.795 11.7351C108.857 10.6308 108.741 9.52371 108.452 8.4559C108.345 8.07965 108.2 7.69092 107.89 7.43949C107.598 7.237 107.262 7.10458 106.91 7.05255C106.063 6.83656 105.203 6.67692 104.335 6.57466C104.203 6.17233 104.008 5.79366 103.755 5.45305C101.941 2.97088 99.254 0.638495 96.0765 0.103545C94.4823 -0.16393 92.6485 0.0589654 91.5643 1.19484C91.451 1.29463 91.3446 1.40186 91.2458 1.51581C90.6625 2.20946 90.4121 3.12066 89.8145 3.81253C89.7751 3.85889 89.7304 3.90169 89.6875 3.94627C88.5174 4.98942 86.6942 5.20697 85.3935 6.14313C85.1643 6.31119 84.9495 6.49787 84.7512 6.70126C84.2271 7.2189 83.7572 7.78828 83.3485 8.40062C82.7635 9.22088 82.1624 10.075 81.9763 11.054C81.6024 13.0155 82.9424 14.8753 83.1911 16.8493C83.7457 21.2662 78.8417 25.1856 79.7703 29.5436C80.0181 30.6143 80.5652 31.593 81.3483 32.3664C79.4357 34.0925 77.8076 35.7669 77.8076 35.7669V35.8667H77.5052L77.5356 36.2234H77.5052L77.6716 38.1581L77.5052 40.9755C77.5052 40.9755 77.5052 41.0058 77.5052 41.0629V41.0772V41.1538C77.5052 41.1538 77.5052 41.1841 77.5052 41.2412H77.516C77.5714 42.2737 77.7915 45.9862 78.0527 46.769C78.3604 47.6767 78.5161 52.1595 78.5161 52.1595C78.5161 52.1595 78.856 58.4951 79.1673 59.3332C79.4786 60.1713 79.0367 63.2152 80.6523 63.9338C81.125 64.2951 81.6846 64.5263 82.2751 64.6043C82.1928 65.2712 82.2447 65.7544 82.5112 65.906C82.6253 65.9728 82.7546 66.0096 82.8869 66.013C82.7773 66.175 82.6799 66.3448 82.5953 66.5212C81.9541 66.4544 81.324 66.3064 80.7203 66.0807C78.9848 65.3674 73.2256 63.7626 71.5528 64.8913C69.8799 66.0201 65.8544 67.0436 67.7133 71.5871C69.5722 76.1306 70.4381 76.2448 70.4381 76.2448C71.0103 76.6588 71.5123 77.1614 71.9249 77.7337C72.4831 78.57 77.6841 80.4834 78.9848 80.4834C79.5377 80.4749 80.0905 80.5023 80.6398 80.5654C80.6398 80.5654 79.2282 81.7993 79.416 82.5162C79.6039 83.233 78.9866 88.9712 78.9866 88.9712C78.9866 88.9712 80.4179 90.4085 81.0298 88.5236L81.0513 88.5522C81.1658 88.7073 81.7848 89.4081 82.9496 88.5236C83.4263 88.1632 83.9326 87.8435 84.4632 87.5679L90.1025 86.7726C90.6905 86.736 91.28 86.7318 91.8684 86.7601C92.763 86.8332 93.6414 86.3054 94.1943 85.897C95.3626 86.3393 96.6758 86.8225 97.3002 86.999C98.5669 87.3557 104.389 88.9124 105.75 88.4256C106.033 88.3134 106.285 88.1348 106.484 87.9049L107.783 87.9459L107.174 88.0672C107.174 88.0672 108.359 88.0868 109.969 88.1082L109.901 88.1474L111.921 88.1296C114.877 88.1563 118.197 88.1652 118.634 88.0672C119.317 87.9156 122.869 88.0226 123.915 88.0672H124.207C124.207 88.0672 128.109 87.2915 126.499 83.3453C125.261 80.314 121.455 79.4331 119.766 79.1906C120.242 79.096 120.652 79.0229 120.924 78.9801C122.103 78.8018 124.393 77.7319 124.579 77.3664C124.765 77.0008 126.685 75.9398 127.181 75.3353C127.676 74.7309 129.091 70.4459 127.916 67.2772ZM95.5952 76.1449L95.4037 76.2073L95.2749 76.2501L95.028 76.4926C94.8312 76.3607 94.6201 76.2216 94.4 76.0789C94.7883 76.1021 95.1873 76.1253 95.5952 76.1449Z" fill="url(#paint0_linear_5:2008)"/>
<path d="M107.003 57.3431C107.003 57.3431 109.74 64.4758 111.297 63.7625C112.853 63.0492 112.431 60.0179 112.728 59.1869C113.025 58.356 113.354 52.0542 113.354 52.0542C113.354 52.0542 113.505 47.5963 113.802 46.694C114.077 45.8649 114.301 41.6833 114.338 41.0254C114.338 40.9683 114.338 40.938 114.338 40.938L114.043 35.7668L112.372 35.3513L108.497 36.7779L107.96 39.8324L107.751 41.0254L107.661 41.5336L107.003 57.3431Z" fill="#BE6F72"/>
<path opacity="0.1" d="M107.904 56.1484C107.904 56.1484 110.516 58.2793 111.304 58.4666C112.091 58.6538 112.574 60.3157 112.574 60.3157" fill="black"/>
<path d="M85.5957 57.6551C85.5957 57.6551 82.8583 64.7878 81.3018 64.0745C79.7452 63.3612 80.1675 60.3299 79.8705 59.4989C79.5735 58.668 79.2443 52.3662 79.2443 52.3662C79.2443 52.3662 79.094 47.9083 78.797 47.006C78.5215 46.1769 78.2978 41.9954 78.2603 41.3374C78.2603 41.2803 78.2603 41.25 78.2603 41.25L78.5572 36.0788L80.2283 35.6633L84.1036 37.0899L84.6403 40.1444L84.8497 41.3374L84.9391 41.8456L85.5957 57.6551Z" fill="#BE6F72"/>
<path d="M103.421 19.4846H97.311V28.9764H103.421V19.4846Z" fill="#3E373A"/>
<path opacity="0.1" d="M103.421 19.4846H97.311V28.9764H103.421V19.4846Z" fill="black"/>
<path d="M84.5222 64.7593C84.5222 64.7593 82.4343 67.0471 83.209 67.4626C83.9837 67.8781 88.9951 75.6652 88.9951 75.6652C88.9951 75.6652 105.455 77.6855 108.559 74.6541C111.663 71.6227 111.601 66.2073 111.601 66.2073C111.601 66.2073 109.107 66.7422 108.835 66.4516C108.563 66.1609 107.069 64.7593 107.069 64.7593C107.069 64.7593 85.9535 63.4826 84.5222 64.7593Z" fill="#4B4B5B"/>
<path opacity="0.02" d="M84.5222 64.7593C84.5222 64.7593 82.4343 67.0471 83.209 67.4626C83.9837 67.8781 88.9951 75.6652 88.9951 75.6652C88.9951 75.6652 105.455 77.6855 108.559 74.6541C111.663 71.6227 111.601 66.2073 111.601 66.2073C111.601 66.2073 109.107 66.7422 108.835 66.4516C108.563 66.1609 107.069 64.7593 107.069 64.7593C107.069 64.7593 85.9535 63.4826 84.5222 64.7593Z" fill="black"/>
<path d="M114.154 35.8417L108.787 40.1213L107.164 40.2389L106.568 40.2817L96.5617 41.0128L86.1847 40.2568L84.6407 40.1444L82.6726 40.0018L78.5576 36.0788C78.5576 36.0788 81.4703 32.969 84.0216 30.8702C85.0271 30.041 85.9772 29.3705 86.6696 29.1066L86.7876 29.0656C87.2232 28.8963 87.612 28.6262 87.922 28.2775C89.9365 26.2072 91.799 21.0984 91.799 21.0984C91.799 21.0984 100.686 16.5228 99.6122 22.525C98.5387 28.5271 103.607 27.0435 103.607 27.0435L105.278 27.8031L105.939 28.1045L107.622 28.873L111.42 30.6098C114.401 31.9775 114.154 35.8417 114.154 35.8417Z" fill="#BE6F72"/>
<path opacity="0.1" d="M96.1449 25.9862C100.559 25.9862 104.137 22.42 104.137 18.0208C104.137 13.6217 100.559 10.0554 96.1449 10.0554C91.731 10.0554 88.1528 13.6217 88.1528 18.0208C88.1528 22.42 91.731 25.9862 96.1449 25.9862Z" fill="black"/>
<path opacity="0.1" d="M114.166 41.5157H78.2603C78.2603 41.4586 78.2603 41.4283 78.2603 41.4283L78.5572 36.2571C78.5572 36.2571 81.47 33.1473 84.0213 31.0485L106.564 30.1569L107.613 29.0549L111.411 30.7917C114.394 32.1576 114.154 36.0218 114.154 36.0218C114.154 36.0218 114.562 40.4993 114.166 41.5157Z" fill="black"/>
<path d="M114.166 41.3372H78.2603C78.2603 41.2802 78.2603 41.2499 78.2603 41.2499L78.5572 36.0787C78.5572 36.0787 81.47 32.9688 84.0213 30.87L106.564 29.9785L107.613 28.8765L111.411 30.6133C114.394 31.9792 114.154 35.8433 114.154 35.8433C114.154 35.8433 114.562 40.3208 114.166 41.3372Z" fill="#E7C7CA"/>
<path opacity="0.1" d="M90.3893 26.8366C90.3893 26.8366 96.0537 34.0299 103.598 26.6886C111.143 19.3473 104.434 43.0634 104.434 43.0634L88.1528 44.9892L90.3893 26.8366Z" fill="black"/>
<path d="M90.3893 27.1935C90.3893 27.1935 96.0537 34.3868 103.598 27.0455C111.143 19.7042 104.434 43.4203 104.434 43.4203L88.1528 45.3461L90.3893 27.1935Z" fill="#E7C7CA"/>
<path opacity="0.1" d="M105.93 28.4558L106.529 37.566L107.171 40.5974L107.661 42.9155C107.661 42.9155 108.914 60.7472 108.556 61.6388C108.198 62.5304 108.735 63.2436 108.81 63.718C108.885 64.1923 108.735 65.3834 108.794 65.9184C108.853 66.4533 108.794 66.6905 107.423 66.4997C106.053 66.3089 104.142 65.9772 104.142 65.9772C104.142 65.9772 99.3115 66.3339 97.6423 65.7401C95.973 65.1463 92.8116 65.1445 92.8116 65.1445C92.8116 65.1445 88.04 65.264 86.4906 65.0856C84.9412 64.9073 84.1039 66.9883 83.0912 66.3927C82.0785 65.7971 84.2828 60.0339 84.9984 58.3685C85.7141 56.703 84.0448 52.484 84.0448 52.484L86.1918 40.6135L86.6695 37.9227V29.4633L86.7876 29.4223C87.2231 29.253 87.6119 28.9829 87.9219 28.6342L88.4586 37.147L105.277 37.7426V28.1616" fill="black"/>
<path d="M105.93 28.0992L106.529 37.2094L107.171 40.2407L107.661 42.5589C107.661 42.5589 108.914 60.3905 108.556 61.2821C108.198 62.1737 108.735 62.887 108.81 63.3613C108.885 63.8356 108.735 65.0268 108.794 65.5617C108.853 66.0967 108.794 66.3338 107.423 66.143C106.053 65.9522 104.142 65.6206 104.142 65.6206C104.142 65.6206 99.3115 65.9772 97.6423 65.3834C95.973 64.7896 92.8116 64.7878 92.8116 64.7878C92.8116 64.7878 88.04 64.9073 86.4906 64.729C84.9412 64.5507 84.1039 66.6316 83.0912 66.036C82.0785 65.4405 84.2828 59.6773 84.9984 58.0118C85.7141 56.3463 84.0448 52.1273 84.0448 52.1273L86.1918 40.2568L86.6695 37.566V29.1066L86.7876 29.0656C87.2231 28.8964 87.6119 28.6262 87.9219 28.2775L88.4586 36.7903L105.277 37.3859V27.8049" fill="#E7C7CA"/>
<path opacity="0.1" d="M107.863 9.08695C107.761 8.71427 107.62 8.32732 107.326 8.07768C107.046 7.87716 106.723 7.74521 106.382 7.69251C105.566 7.47864 104.736 7.32017 103.898 7.21819C103.779 6.82224 103.598 6.4474 103.362 6.10728C101.608 3.63938 99.0141 1.31235 95.9619 0.786312C94.3642 0.509921 92.5124 0.757781 91.489 2.01313C90.9272 2.70322 90.6857 3.61798 90.1186 4.29558C89.0254 5.61156 87.052 5.77383 85.6743 6.79202C84.939 7.32697 84.4058 8.10264 83.8852 8.85514C83.3216 9.67005 82.7419 10.5188 82.563 11.4924C82.2052 13.4379 83.4952 15.2924 83.7331 17.2556C84.2699 21.6476 79.5465 25.5438 80.4393 29.8769C80.96 32.4036 83.3019 34.1832 85.7244 35.0855C86.5778 35.4047 87.5529 35.7221 87.9519 36.5388C88.1308 36.8954 88.1612 37.3073 88.3294 37.6675C88.8948 38.8694 90.7537 38.9158 91.752 38.0402C92.7504 37.1647 93.0653 35.7489 93.1833 34.4275C93.6628 28.6572 91.3441 22.9564 91.6143 17.1718C91.6948 15.4225 92.1886 13.4379 93.7612 12.6462C95.8778 11.5763 98.4237 13.3594 100.753 13.0188C101.856 15.692 102.09 18.6424 101.422 21.455C101.052 22.9939 100.411 24.4864 100.365 26.0734C100.295 28.4896 101.603 30.6971 102.734 32.8334C102.976 33.2329 103.139 33.6756 103.211 34.1369C103.229 34.6049 103.142 35.071 102.956 35.501C102.317 37.2146 101.215 38.8052 101.09 40.6294C101.053 40.8423 101.101 41.0611 101.224 41.2392C101.35 41.3581 101.512 41.431 101.685 41.4461C103.618 41.776 105.289 40.0695 106.232 38.3558C107.283 36.4632 107.895 34.3599 108.024 32.2004C108.219 28.5698 106.913 24.9981 106.994 21.3641C107.087 17.2325 108.96 13.0723 107.863 9.08695Z" fill="black"/>
<path d="M108.042 8.90873C107.94 8.53605 107.799 8.1491 107.506 7.89946C107.225 7.69894 106.902 7.56699 106.561 7.51429C105.745 7.30042 104.915 7.14195 104.078 7.03997C103.958 6.64402 103.777 6.26918 103.541 5.92906C101.788 3.46116 99.1933 1.13412 96.1411 0.608089C94.5434 0.331699 92.6916 0.579558 91.6682 1.83491C91.1064 2.52499 90.8649 3.43976 90.2977 4.11736C89.2046 5.43334 87.2312 5.59561 85.8535 6.61379C85.1182 7.14874 84.585 7.92442 84.0644 8.67692C83.5008 9.49183 82.9211 10.3406 82.7422 11.3142C82.3844 13.2597 83.6744 15.1141 83.9123 17.0774C84.4491 21.4694 79.7257 25.3656 80.6185 29.6987C81.1392 32.2254 83.4811 34.005 85.9036 34.9073C86.757 35.2265 87.7321 35.5439 88.1311 36.3606C88.31 36.7172 88.3404 37.1291 88.5086 37.4893C89.074 38.6912 90.9329 38.7375 91.9312 37.862C92.9296 36.9865 93.2444 35.5706 93.3625 34.2493C93.842 28.479 91.5233 22.7782 91.7935 16.9936C91.874 15.2443 92.3678 13.2597 93.9404 12.4679C96.057 11.398 98.6029 13.1812 100.932 12.8406C102.035 15.5138 102.269 18.4641 101.602 21.2768C101.231 22.8156 100.591 24.3082 100.544 25.8952C100.474 28.3114 101.782 30.5189 102.913 32.6552C103.156 33.0546 103.318 33.4974 103.391 33.9587C103.408 34.4267 103.321 34.8928 103.135 35.3228C102.496 37.0364 101.394 38.627 101.269 40.4512C101.232 40.6641 101.28 40.8829 101.403 41.061C101.529 41.1799 101.692 41.2528 101.865 41.2679C103.797 41.5977 105.468 39.8912 106.411 38.1776C107.462 36.2849 108.074 34.1816 108.203 32.0221C108.398 28.3916 107.092 24.8199 107.173 21.1858C107.266 17.0542 109.139 12.8941 108.042 8.90873Z" fill="#3E373A"/>
<path d="M104.09 87.8619L111.187 88.0884L110.169 82.8423L104.732 83.3576L104.09 87.8619Z" fill="#C3C7D9"/>
<path d="M126.082 75.4281C125.604 76.0219 123.756 77.0918 123.577 77.4484C123.398 77.8051 121.192 78.875 120.058 79.0533C118.924 79.2316 115.347 80.0055 114.691 80.421C114.22 80.7205 110.443 81.6692 107.962 82.1952C107.29 82.3537 106.609 82.4757 105.924 82.5608C104.85 82.6196 93.103 78.6378 93.103 78.6378L95.3681 76.3197L95.4933 76.2769C96.1338 76.0611 99.093 75.0643 100.735 74.59C102.585 74.0551 104.732 71.8564 104.732 71.8564C104.732 71.8564 107.892 70.7865 108.311 70.6671C108.729 70.5476 107.237 66.5069 107.237 66.5069C107.237 66.5069 114.095 65.5583 116.779 64.7541C119.462 63.9499 125.665 64.2477 126.798 67.3985C127.93 70.5494 126.567 74.8343 126.082 75.4281Z" fill="#4B4B5B"/>
<path d="M94.8314 85.4725C94.8314 85.4725 93.4609 86.8991 92.0886 86.7814C90.7164 86.6637 85.9179 87.138 85.9179 87.138C85.0483 87.4837 84.234 87.9541 83.5008 88.5342C82.379 89.4151 81.7832 88.7126 81.6723 88.5628L81.6526 88.5342C81.055 90.4083 79.6846 88.98 79.6846 88.98C79.6846 88.98 80.2804 83.2739 80.0979 82.5606C79.9154 81.8474 81.2769 80.6223 81.2769 80.6223L82.8871 80.214L86.9663 79.1726L92.8115 81.1929L94.8314 85.4725Z" fill="#E7C7CA"/>
<path opacity="0.1" d="M82.88 80.2139L81.6723 88.5627L81.6526 88.5341C81.0551 90.4082 79.6846 88.9799 79.6846 88.9799C79.6846 88.9799 80.2804 83.2738 80.0979 82.5605C79.9154 81.8473 81.2769 80.6222 81.2769 80.6222L82.88 80.2139Z" fill="black"/>
<path opacity="0.1" d="M91.3208 56.4658C91.3208 56.4658 94.4804 57.5357 97.225 56.4658Z" fill="black"/>
<path opacity="0.1" d="M102.108 58.4878C102.108 58.4878 103.419 59.1405 104.434 58.4878Z" fill="black"/>
<path opacity="0.1" d="M102.108 60.0357C102.108 60.0357 104.314 60.3299 104.733 59.7361Z" fill="black"/>
<path opacity="0.1" d="M101.392 63.3613C101.392 63.3613 105.536 62.8263 106.564 62.113Z" fill="black"/>
<path opacity="0.1" d="M88.7485 62.113C88.7485 62.113 91.0744 63.4201 92.8045 63.3613Z" fill="black"/>
<path opacity="0.1" d="M107.96 82.1952C107.288 82.3537 106.607 82.4757 105.922 82.5607C104.849 82.6196 93.1011 78.6378 93.1011 78.6378L95.3661 76.3197L95.4914 76.2769C95.8492 76.5283 96.1426 76.744 96.3519 76.9081C97.3377 77.682 98.2896 76.6709 98.6474 76.6709C99.0052 76.6709 102.106 79.2262 102.106 79.2262C102.106 79.2262 104.968 79.8806 105.446 80.4744C105.924 81.0682 107.593 80.9505 107.89 81.366C107.98 81.4944 107.99 81.81 107.96 82.1952Z" fill="black"/>
<path d="M85.9179 66.7492C85.9179 66.7492 83.023 66.915 81.3538 66.2142C79.6845 65.5134 74.1382 63.8961 72.528 65.032C70.9177 66.1679 67.0407 67.1718 68.8298 71.6903C70.619 76.2089 71.4545 76.3266 71.4545 76.3266C72.008 76.7403 72.4913 77.24 72.8858 77.8066C73.4225 78.6393 78.4321 80.5402 79.6845 80.5402C80.9369 80.5402 83.1429 80.5402 86.2435 82.68C89.3441 84.8198 92.1476 85.0587 92.1476 85.0587C92.1476 85.0587 96.0837 86.6636 97.3093 87.0202C98.5348 87.3768 104.135 88.9211 105.448 88.4467C106.761 87.9724 107.595 84.9981 107.595 84.9981C107.595 84.9981 108.191 82.3234 107.892 81.9079C107.593 81.4924 105.924 81.6101 105.448 81.0163C104.972 80.4225 102.108 79.7681 102.108 79.7681C102.108 79.7681 99.0143 77.211 98.6565 77.211C98.2987 77.211 97.3469 78.2203 96.361 77.4482C94.3973 75.9985 92.3342 74.6877 90.1867 73.5252C87.9217 72.3358 85.9179 66.7492 85.9179 66.7492Z" fill="#4B4B5B"/>
<path opacity="0.1" d="M80.0977 68.4737C80.6131 68.3688 81.1459 68.3838 81.6545 68.5178C82.1631 68.6517 82.6339 68.9008 83.03 69.2458C84.4614 70.4352 89.2777 72.8229 89.2777 72.8229" fill="black"/>
<path opacity="0.1" d="M115.884 68.3987C115.884 68.3987 109.502 69.3616 108.311 70.6687Z" fill="black"/>
<path d="M123.219 88.0884H122.938C121.929 88.0527 118.51 87.9458 117.852 88.0884C117.077 88.2667 106.818 88.0884 106.818 88.0884L108.824 87.6729C108.824 87.6729 108.08 85.0731 108.552 84.8573C108.552 84.8573 105.868 83.0956 107.892 81.9062C109.915 80.7168 112.096 81.2179 112.096 81.2179L117.176 79.5025L118.151 79.1726C118.151 79.1726 123.876 79.4704 125.425 83.3933C126.975 87.3163 123.219 88.0884 123.219 88.0884Z" fill="#E7C7CA"/>
<path opacity="0.1" d="M123.219 88.0886H122.939C124.604 86.7191 128.372 82.55 117.176 79.5115L118.151 79.1816C118.151 79.1816 123.876 79.4794 125.425 83.4024C126.975 87.3254 123.219 88.0886 123.219 88.0886Z" fill="black"/>
<path d="M112.694 83.4664C112.867 83.4664 113.007 83.3267 113.007 83.1543C113.007 82.982 112.867 82.8423 112.694 82.8423C112.521 82.8423 112.381 82.982 112.381 83.1543C112.381 83.3267 112.521 83.4664 112.694 83.4664Z" fill="#4B4B5B"/>
<path d="M110.875 83.9817C111.048 83.9817 111.188 83.842 111.188 83.6697C111.188 83.4974 111.048 83.3577 110.875 83.3577C110.702 83.3577 110.562 83.4974 110.562 83.6697C110.562 83.842 110.702 83.9817 110.875 83.9817Z" fill="#4B4B5B"/>
<g opacity="0.1">
<path opacity="0.1" d="M102.009 17.7266C102.079 15.7653 101.729 13.8117 100.982 11.9955C98.6565 12.3415 96.1087 10.553 93.9904 11.6229C92.4231 12.4146 91.9311 14.3992 91.8434 16.1485C91.822 16.6104 91.8184 17.0722 91.8273 17.5341C91.8273 17.37 91.8273 17.2042 91.8434 17.0401C91.9257 15.2908 92.4177 13.3062 93.9904 12.5144C96.1087 11.4445 98.6529 13.2277 100.982 12.8871C101.614 14.4255 101.962 16.065 102.009 17.7266V17.7266Z" fill="black"/>
<path opacity="0.1" d="M83.9858 17.4002C84.0165 17.0117 84.0087 16.6211 83.9626 16.234C83.7729 14.6649 82.9124 13.1652 82.7567 11.6353C82.5563 13.4808 83.7354 15.2533 83.9626 17.1256C83.9858 17.2219 83.9858 17.3075 83.9858 17.4002Z" fill="black"/>
<path opacity="0.1" d="M93.4127 33.4023C93.3017 34.7254 92.9886 36.1394 91.9814 37.0167C90.9741 37.8941 89.1187 37.8459 88.5587 36.6441C88.3798 36.2874 88.353 35.8719 88.1794 35.5153C87.7823 34.6986 86.8054 34.3812 85.952 34.062C83.5277 33.158 81.1893 31.3873 80.6687 28.8534C80.6222 28.6238 80.5905 28.3916 80.5738 28.158C80.5298 28.6888 80.5618 29.2231 80.6687 29.745C81.1893 32.2717 83.5313 34.0495 85.952 34.9536C86.8054 35.2728 87.7823 35.5902 88.1794 36.4069C88.3584 36.7635 88.3888 37.1754 88.5587 37.5356C89.1223 38.7375 90.9812 38.7839 91.9814 37.9083C92.9815 37.0328 93.2928 35.617 93.4127 34.2938C93.4671 33.5974 93.4856 32.8987 93.4681 32.2004C93.4681 32.6052 93.4449 33.0046 93.4127 33.4023Z" fill="black"/>
<path opacity="0.1" d="M107.232 20.3406C107.232 20.5992 107.232 20.8559 107.232 21.1127C107.332 17.796 108.552 14.4615 108.432 11.2144C108.339 14.2172 107.3 17.2878 107.232 20.3406Z" fill="black"/>
<path opacity="0.1" d="M103.392 33.7571C103.436 33.5455 103.45 33.3288 103.433 33.1134C103.361 32.6519 103.199 32.209 102.956 31.8099C101.922 29.8484 100.743 27.8406 100.603 25.6633C100.603 25.7561 100.591 25.8416 100.589 25.9415C100.517 28.3559 101.825 30.5653 102.956 32.7015C103.148 33.0324 103.295 33.3874 103.392 33.7571V33.7571Z" fill="black"/>
<path opacity="0.1" d="M108.261 31.1769C108.127 33.3373 107.51 35.4405 106.455 37.3324C105.511 39.0461 103.841 40.7525 101.907 40.4227C101.734 40.4078 101.571 40.3341 101.446 40.214C101.409 40.1732 101.381 40.126 101.362 40.0749C101.34 40.214 101.322 40.3549 101.311 40.4975C101.274 40.7099 101.323 40.9283 101.446 41.1056C101.571 41.2257 101.734 41.2994 101.907 41.3142C103.841 41.6441 105.511 39.9376 106.455 38.224C107.51 36.3321 108.127 34.2289 108.261 32.0685C108.282 31.6513 108.284 31.2358 108.271 30.8203C108.268 30.9398 108.268 31.0575 108.261 31.1769Z" fill="black"/>
</g>
<path opacity="0.1" d="M108.552 84.8573C108.552 84.8573 113.081 86.751 116.067 82.5605" stroke="black" stroke-miterlimit="10"/>
<path opacity="0.1" d="M109.443 88.1669C109.443 88.1669 113.142 85.7703 117.852 88.0884" stroke="black" stroke-miterlimit="10"/>
<path opacity="0.1" d="M84.689 87.623C84.689 87.623 86.2419 84.1315 90.3891 86.7938" stroke="black" stroke-miterlimit="10"/>
<path opacity="0.1" d="M79.6543 35.9897L82.8211 33.1367C82.8211 33.1367 95.0999 32.3342 95.608 36.4944C95.608 36.4944 99.961 31.5621 109.116 32.6605L112.99 35.7347L102.283 40.4173L91.8795 44.014L84.2166 40.5956L79.6543 35.9897Z" fill="black"/>
<path d="M79.6543 36.1679L82.8211 33.3149C82.8211 33.3149 95.0999 32.5125 95.608 36.6726C95.608 36.6726 99.961 31.7403 109.116 32.8388L112.99 35.913L102.283 40.5955L91.8795 44.1922L84.2166 40.7739L79.6543 36.1679Z" fill="#D5D6DB"/>
<path opacity="0.1" d="M78.2529 36.5247L79.6538 53.2276L94.5036 53.9712L93.8595 37.3396L93.847 37.0596L78.2529 36.5247Z" fill="black"/>
<path d="M78.2529 36.168L79.6538 52.8709L94.5036 53.6145L93.8595 36.9829L93.847 36.7029L78.2529 36.168Z" fill="#C0531A"/>
<path opacity="0.1" d="M113.669 36.168L98.3506 38.4576V55.2354L113.32 53.0795L113.669 36.168Z" fill="black"/>
<path d="M113.669 35.8113L98.3506 38.1009V54.8787L113.32 52.7228L113.669 35.8113Z" fill="#C0531A"/>
<path opacity="0.3" d="M110.057 39.9055L101.782 40.8221L101.963 43.6323L110.052 42.7515L110.057 39.9055Z" fill="white"/>
<path d="M80.4592 61.8152L81.3019 64.0745C81.3019 64.0745 82.5543 65.1444 83.9247 64.6095C85.2952 64.0745 86.4904 63.8088 87.0862 63.2881C87.6819 62.7675 88.5175 60.1516 88.5175 60.1516C88.5175 60.1516 89.353 57.2985 90.1867 56.5852C91.0205 55.8719 93.2283 46.0449 90.1867 47.006C87.1452 47.9672 84.8193 56.883 84.8193 56.883C84.8193 56.883 84.2826 57.5356 83.5079 57.5963C82.7332 57.6569 81.182 57.4768 80.8832 58.1312C80.5844 58.7856 79.5646 60.5082 80.4592 61.8152Z" fill="#BE6F72"/>
<path opacity="0.1" d="M98.3504 38.4559C97.5661 38.632 96.7514 38.6228 95.9713 38.429C95.1912 38.2351 94.4675 37.8621 93.8579 37.3396L94.5038 53.9694C94.5038 53.9694 96.0246 55.6099 98.3504 55.2355V38.4559Z" fill="black"/>
<path d="M98.3504 38.0992C97.5661 38.2753 96.7514 38.2661 95.9713 38.0723C95.1912 37.8784 94.4675 37.5054 93.8579 36.9829L94.5038 53.6127C94.5038 53.6127 96.0246 55.2532 98.3504 54.8788V38.0992Z" fill="#C0531A"/>
<path opacity="0.1" d="M98.3504 38.0992C97.5661 38.2753 96.7514 38.2661 95.9713 38.0723C95.1912 37.8784 94.4675 37.5054 93.8579 36.9829L94.5038 53.6127C94.5038 53.6127 96.0246 55.2532 98.3504 54.8788V38.0992Z" fill="black"/>
<path opacity="0.1" d="M98.7085 36.225C98.7085 36.225 104.94 34.326 106.565 34.5934Z" fill="black"/>
<path opacity="0.1" d="M91.7381 35.3958C91.7381 35.3958 85.698 33.9693 84.689 34.3741Z" fill="black"/>
<path opacity="0.1" d="M102.637 36.4621C102.637 36.4621 106.804 34.9393 108.311 35.6632Z" fill="black"/>
<path opacity="0.1" d="M100.539 74.6629C101.184 74.1796 101.872 73.7542 102.592 73.3915C103.666 72.8762 105.634 71.5388 105.634 71.5388" fill="black"/>
<path opacity="0.1" d="M84.6887 56.4658C84.6887 56.4658 82.0747 58.5967 81.2893 58.7839C80.5039 58.9712 80.019 60.6331 80.019 60.6331" fill="black"/>
<path d="M112.132 61.4979L111.298 63.7625C111.298 63.7625 110.046 64.8324 108.674 64.2974C107.301 63.7625 106.11 63.4968 105.512 62.9761C104.915 62.4554 104.081 59.8395 104.081 59.8395C104.081 59.8395 103.247 56.9865 102.412 56.2732C101.576 55.5599 99.3702 45.7329 102.412 46.694C105.453 47.6552 107.779 56.571 107.779 56.571C107.779 56.571 108.316 57.2236 109.091 57.2843C109.865 57.3449 111.417 57.1648 111.715 57.8192C112.014 58.4736 113.027 60.1962 112.132 61.4979Z" fill="#BE6F72"/>
<path opacity="0.1" d="M110.67 57.3323C110.67 57.3323 112.379 58.4271 112.372 59.736Z" fill="black"/>
<path d="M96.1732 25.5956C100.587 25.5956 104.165 22.0294 104.165 17.6302C104.165 13.231 100.587 9.66479 96.1732 9.66479C91.7593 9.66479 88.1812 13.231 88.1812 17.6302C88.1812 22.0294 91.7593 25.5956 96.1732 25.5956Z" fill="#BE6F72"/>
<path d="M91.1547 15.492C92.1244 15.3405 92.9742 14.7788 93.901 14.456C95.9746 13.7303 98.2683 14.2278 100.367 14.8822C101.172 15.1336 101.99 15.4171 102.834 15.4171C103.679 15.4171 104.575 15.073 105.006 14.3472C105.403 13.6803 105.326 12.8137 104.992 12.1129C104.657 11.4121 104.097 10.8487 103.532 10.3173C101.671 8.56621 99.3632 6.92927 96.8101 7.10758C95.7831 7.18069 94.8009 7.54624 93.8562 7.95102C92.6668 8.4619 91.5089 9.04306 90.3889 9.69139C89.5283 10.1889 87.9342 10.854 87.4386 11.7634C86.3115 13.8123 89.4013 15.7666 91.1547 15.492Z" fill="#3E373A"/>
<path opacity="0.1" d="M105.006 13.5985C104.575 14.3243 103.679 14.6684 102.834 14.6684C101.99 14.6684 101.172 14.3956 100.365 14.1442C98.2667 13.4898 95.9748 12.9905 93.8994 13.718C92.9744 14.0408 92.1228 14.6096 91.1531 14.7523C89.7397 14.9734 87.4639 13.7466 87.217 12.1863C86.9397 13.9891 89.5787 15.5333 91.1531 15.2872C92.1228 15.1356 92.9744 14.5739 93.8994 14.253C95.9748 13.5254 98.2667 14.0247 100.365 14.6791C101.172 14.9306 101.988 15.2141 102.834 15.2034C103.681 15.1927 104.575 14.861 105.006 14.1335C105.23 13.7377 105.318 13.2801 105.257 12.83C105.229 13.101 105.144 13.3629 105.006 13.5985Z" fill="black"/>
<path d="M169.864 110.237C169.864 110.237 170.925 111.619 169.374 113.707C167.823 115.795 166.546 117.557 167.061 118.859C167.061 118.859 169.401 114.982 171.305 114.927C173.208 114.872 171.956 112.568 169.864 110.237Z" fill="#C0531A"/>
<path opacity="0.1" d="M169.864 110.237C169.956 110.371 170.029 110.516 170.08 110.67C171.938 112.846 172.929 114.877 171.141 114.927C169.477 114.975 167.483 117.94 167.005 118.687C167.02 118.748 167.039 118.807 167.06 118.866C167.06 118.866 169.401 114.989 171.304 114.934C173.208 114.879 171.955 112.568 169.864 110.237Z" fill="black"/>
<path d="M171.832 111.999C171.832 112.486 171.777 112.88 171.71 112.88C171.644 112.88 171.587 112.486 171.587 111.999C171.587 111.512 171.655 111.742 171.723 111.742C171.791 111.742 171.832 111.512 171.832 111.999Z" fill="#FFD037"/>
<path d="M172.51 112.58C172.083 112.812 171.709 112.953 171.677 112.894C171.644 112.835 171.965 112.598 172.392 112.359C172.82 112.12 172.652 112.295 172.684 112.359C172.716 112.423 172.94 112.347 172.51 112.58Z" fill="#FFD037"/>
<path d="M164.257 110.237C164.257 110.237 163.196 111.619 164.747 113.707C166.298 115.795 167.576 117.557 167.059 118.859C167.059 118.859 164.72 114.982 162.815 114.927C160.91 114.872 162.171 112.568 164.257 110.237Z" fill="#C0531A"/>
<path opacity="0.1" d="M164.257 110.237C164.165 110.371 164.092 110.516 164.041 110.67C162.183 112.846 161.192 114.877 162.98 114.927C164.642 114.975 166.638 117.94 167.116 118.687C167.101 118.748 167.082 118.808 167.059 118.866C167.059 118.866 164.72 114.989 162.815 114.934C160.91 114.879 162.171 112.568 164.257 110.237Z" fill="black"/>
<path d="M162.286 111.999C162.286 112.486 162.339 112.88 162.407 112.88C162.475 112.88 162.531 112.486 162.531 111.999C162.531 111.512 162.461 111.742 162.395 111.742C162.329 111.742 162.286 111.512 162.286 111.999Z" fill="#FFD037"/>
<path d="M161.609 112.58C162.037 112.812 162.411 112.953 162.443 112.894C162.475 112.835 162.155 112.598 161.727 112.359C161.299 112.12 161.468 112.295 161.435 112.359C161.403 112.423 161.18 112.347 161.609 112.58Z" fill="#FFD037"/>
<path opacity="0.1" d="M167.06 129.436C173.187 129.436 178.153 128.677 178.153 127.741C178.153 126.804 173.187 126.045 167.06 126.045C160.934 126.045 155.968 126.804 155.968 127.741C155.968 128.677 160.934 129.436 167.06 129.436Z" fill="#C0531A"/>
<path d="M172.77 116.995L172.716 117.427L172.641 118.037L172.611 118.292L172.536 118.902L172.503 119.157L172.43 119.765L171.58 126.701C171.505 127.32 170.491 127.803 169.265 127.803H164.855C163.629 127.803 162.617 127.32 162.54 126.701L161.69 119.765L161.615 119.157L161.584 118.902L161.509 118.292L161.477 118.037L161.404 117.427L161.35 116.995C161.309 116.639 161.856 116.35 162.55 116.35H171.571C172.264 116.35 172.813 116.644 172.77 116.995Z" fill="#8F431B"/>
<path d="M172.716 117.427L172.643 118.037H161.478L161.403 117.427H172.716Z" fill="#9D9CB5"/>
<path d="M172.61 118.292L172.537 118.902H161.584L161.509 118.292H172.61Z" fill="#9D9CB5"/>
<path d="M172.505 119.156L172.43 119.766H161.69L161.616 119.156H172.505Z" fill="#9D9CB5"/>
</g>
<defs>
<linearGradient id="paint0_linear_5:2008" x1="97.8012" y1="89.5008" x2="97.8012" y2="0.00012051" gradientUnits="userSpaceOnUse">
<stop stop-color="#808080" stop-opacity="0.25"/>
<stop offset="0.54" stop-color="#808080" stop-opacity="0.12"/>
<stop offset="1" stop-color="#808080" stop-opacity="0.1"/>
</linearGradient>
<clipPath id="clip0_5:2008">
<rect width="183" height="145" fill="white"/>
</clipPath>
</defs>
</svg>
